<?xml version="1.0" encoding="UTF-8"?>
<svg xmlns="http://www.w3.org/2000/svg" xmlns:xlink="http://www.w3.org/1999/xlink" width="1600pt" height="1600pt" viewBox="0 0 1600 1600" version="1.1">
<g id="surface19">
<rect x="0" y="0" width="1600" height="1600" style="fill:rgb(100%,100%,100%);fill-opacity:1;stroke:none;"/>
<path style=" stroke:none;fill-rule:nonzero;fill:rgb(100%,0%,0%);fill-opacity:1;" d="M 0 0 L 0 1600 L 8 1600 L 8 0 L 0 0 "/>
<path style=" stroke:none;fill-rule:nonzero;fill:rgb(100%,64.705882%,0%);fill-opacity:1;" d="M 8 0 L 8 1600 L 16 1600 L 16 0 L 8 0 "/>
<path style=" stroke:none;fill-rule:nonzero;fill:rgb(100%,100%,100%);fill-opacity:1;" d="M 16 0 L 16 1600 L 24 1600 L 24 0 L 16 0 "/>
<path style=" stroke:none;fill-rule:nonzero;fill:rgb(0%,0%,100%);fill-opacity:1;" d="M 24 0 L 24 1600 L 32 1600 L 32 0 L 24 0 "/>
<path style=" stroke:none;fill-rule:nonzero;fill:rgb(100%,0%,0%);fill-opacity:1;" d="M 32 0 L 32 1600 L 40 1600 L 40 0 L 32 0 "/>
<path style=" stroke:none;fill-rule:nonzero;fill:rgb(100%,64.705882%,0%);fill-opacity:1;" d="M 40 0 L 40 1600 L 48 1600 L 48 0 L 40 0 "/>
<path style=" stroke:none;fill-rule:nonzero;fill:rgb(100%,0%,0%);fill-opacity:1;" d="M 48 0 L 48 1600 L 56 1600 L 56 0 L 48 0 "/>
<path style=" stroke:none;fill-rule:nonzero;fill:rgb(100%,64.705882%,0%);fill-opacity:1;" d="M 56 0 L 56 1600 L 64 1600 L 64 0 L 56 0 "/>
<path style=" stroke:none;fill-rule:nonzero;fill:rgb(0%,0%,100%);fill-opacity:1;" d="M 64 0 L 64 1600 L 72 1600 L 72 0 L 64 0 "/>
<path style=" stroke:none;fill-rule:nonzero;fill:rgb(100%,0%,0%);fill-opacity:1;" d="M 72 0 L 72 1600 L 80 1600 L 80 0 L 72 0 "/>
<path style=" stroke:none;fill-rule:nonzero;fill:rgb(100%,64.705882%,0%);fill-opacity:1;" d="M 80 0 L 80 1600 L 88 1600 L 88 0 L 80 0 "/>
<path style=" stroke:none;fill-rule:nonzero;fill:rgb(100%,0%,0%);fill-opacity:1;" d="M 88 0 L 88 1600 L 96 1600 L 96 0 L 88 0 "/>
<path style=" stroke:none;fill-rule:nonzero;fill:rgb(0%,0%,100%);fill-opacity:1;" d="M 96 0 L 96 1600 L 104 1600 L 104 0 L 96 0 "/>
<path style=" stroke:none;fill-rule:nonzero;fill:rgb(100%,64.705882%,0%);fill-opacity:1;" d="M 104 0 L 104 1600 L 112 1600 L 112 0 L 104 0 "/>
<path style=" stroke:none;fill-rule:nonzero;fill:rgb(100%,64.705882%,0%);fill-opacity:1;" d="M 112 0 L 112 1600 L 120 1600 L 120 0 L 112 0 "/>
<path style=" stroke:none;fill-rule:nonzero;fill:rgb(100%,64.705882%,0%);fill-opacity:1;" d="M 120 0 L 120 1600 L 128 1600 L 128 0 L 120 0 "/>
<path style=" stroke:none;fill-rule:nonzero;fill:rgb(0%,0%,100%);fill-opacity:1;" d="M 128 0 L 128 1600 L 136 1600 L 136 0 L 128 0 "/>
<path style=" stroke:none;fill-rule:nonzero;fill:rgb(100%,0%,0%);fill-opacity:1;" d="M 136 0 L 136 1600 L 144 1600 L 144 0 L 136 0 "/>
<path style=" stroke:none;fill-rule:nonzero;fill:rgb(100%,64.705882%,0%);fill-opacity:1;" d="M 144 0 L 144 1600 L 152 1600 L 152 0 L 144 0 "/>
<path style=" stroke:none;fill-rule:nonzero;fill:rgb(0%,0%,100%);fill-opacity:1;" d="M 152 0 L 152 1600 L 160 1600 L 160 0 L 152 0 "/>
<path style=" stroke:none;fill-rule:nonzero;fill:rgb(100%,64.705882%,0%);fill-opacity:1;" d="M 160 0 L 160 1600 L 168 1600 L 168 0 L 160 0 "/>
<path style=" stroke:none;fill-rule:nonzero;fill:rgb(0%,0%,100%);fill-opacity:1;" d="M 168 0 L 168 1600 L 176 1600 L 176 0 L 168 0 "/>
<path style=" stroke:none;fill-rule:nonzero;fill:rgb(0%,0%,100%);fill-opacity:1;" d="M 176 0 L 176 1600 L 184 1600 L 184 0 L 176 0 "/>
<path style=" stroke:none;fill-rule:nonzero;fill:rgb(0%,0%,100%);fill-opacity:1;" d="M 184 0 L 184 1600 L 192 1600 L 192 0 L 184 0 "/>
<path style=" stroke:none;fill-rule:nonzero;fill:rgb(100%,64.705882%,0%);fill-opacity:1;" d="M 192 0 L 192 1600 L 200 1600 L 200 0 L 192 0 "/>
<path style=" stroke:none;fill-rule:nonzero;fill:rgb(0%,0%,100%);fill-opacity:1;" d="M 200 0 L 200 1600 L 208 1600 L 208 0 L 200 0 "/>
<path style=" stroke:none;fill-rule:nonzero;fill:rgb(100%,64.705882%,0%);fill-opacity:1;" d="M 208 0 L 208 1600 L 216 1600 L 216 0 L 208 0 "/>
<path style=" stroke:none;fill-rule:nonzero;fill:rgb(0%,0%,100%);fill-opacity:1;" d="M 216 0 L 216 1600 L 224 1600 L 224 0 L 216 0 "/>
<path style=" stroke:none;fill-rule:nonzero;fill:rgb(100%,64.705882%,0%);fill-opacity:1;" d="M 224 0 L 224 1600 L 232 1600 L 232 0 L 224 0 "/>
<path style=" stroke:none;fill-rule:nonzero;fill:rgb(0%,0%,100%);fill-opacity:1;" d="M 232 0 L 232 1600 L 240 1600 L 240 0 L 232 0 "/>
<path style=" stroke:none;fill-rule:nonzero;fill:rgb(100%,0%,0%);fill-opacity:1;" d="M 240 0 L 240 1600 L 248 1600 L 248 0 L 240 0 "/>
<path style=" stroke:none;fill-rule:nonzero;fill:rgb(100%,64.705882%,0%);fill-opacity:1;" d="M 248 0 L 248 1600 L 256 1600 L 256 0 L 248 0 "/>
<path style=" stroke:none;fill-rule:nonzero;fill:rgb(0%,0%,100%);fill-opacity:1;" d="M 256 0 L 256 1600 L 264 1600 L 264 0 L 256 0 "/>
<path style=" stroke:none;fill-rule:nonzero;fill:rgb(100%,0%,0%);fill-opacity:1;" d="M 264 0 L 264 1600 L 272 1600 L 272 0 L 264 0 "/>
<path style=" stroke:none;fill-rule:nonzero;fill:rgb(100%,0%,0%);fill-opacity:1;" d="M 272 0 L 272 1600 L 280 1600 L 280 0 L 272 0 "/>
<path style=" stroke:none;fill-rule:nonzero;fill:rgb(100%,0%,0%);fill-opacity:1;" d="M 280 0 L 280 1600 L 288 1600 L 288 0 L 280 0 "/>
<path style=" stroke:none;fill-rule:nonzero;fill:rgb(0%,0%,100%);fill-opacity:1;" d="M 288 0 L 288 1600 L 296 1600 L 296 0 L 288 0 "/>
<path style=" stroke:none;fill-rule:nonzero;fill:rgb(100%,0%,0%);fill-opacity:1;" d="M 296 0 L 296 1600 L 304 1600 L 304 0 L 296 0 "/>
<path style=" stroke:none;fill-rule:nonzero;fill:rgb(0%,0%,100%);fill-opacity:1;" d="M 304 0 L 304 1600 L 312 1600 L 312 0 L 304 0 "/>
<path style=" stroke:none;fill-rule:nonzero;fill:rgb(0%,0%,100%);fill-opacity:1;" d="M 312 0 L 312 1600 L 320 1600 L 320 0 L 312 0 "/>
<path style=" stroke:none;fill-rule:nonzero;fill:rgb(0%,0%,100%);fill-opacity:1;" d="M 320 0 L 320 1600 L 328 1600 L 328 0 L 320 0 "/>
<path style=" stroke:none;fill-rule:nonzero;fill:rgb(100%,64.705882%,0%);fill-opacity:1;" d="M 328 0 L 328 1600 L 336 1600 L 336 0 L 328 0 "/>
<path style=" stroke:none;fill-rule:nonzero;fill:rgb(0%,0%,100%);fill-opacity:1;" d="M 336 0 L 336 1600 L 344 1600 L 344 0 L 336 0 "/>
<path style=" stroke:none;fill-rule:nonzero;fill:rgb(100%,64.705882%,0%);fill-opacity:1;" d="M 344 0 L 344 1600 L 352 1600 L 352 0 L 344 0 "/>
<path style=" stroke:none;fill-rule:nonzero;fill:rgb(100%,64.705882%,0%);fill-opacity:1;" d="M 352 0 L 352 1600 L 360 1600 L 360 0 L 352 0 "/>
<path style=" stroke:none;fill-rule:nonzero;fill:rgb(100%,64.705882%,0%);fill-opacity:1;" d="M 360 0 L 360 1600 L 368 1600 L 368 0 L 360 0 "/>
<path style=" stroke:none;fill-rule:nonzero;fill:rgb(100%,0%,0%);fill-opacity:1;" d="M 368 0 L 368 1600 L 376 1600 L 376 0 L 368 0 "/>
<path style=" stroke:none;fill-rule:nonzero;fill:rgb(0%,0%,100%);fill-opacity:1;" d="M 376 0 L 376 1600 L 384 1600 L 384 0 L 376 0 "/>
<path style=" stroke:none;fill-rule:nonzero;fill:rgb(0%,0%,100%);fill-opacity:1;" d="M 384 0 L 384 1600 L 392 1600 L 392 0 L 384 0 "/>
<path style=" stroke:none;fill-rule:nonzero;fill:rgb(0%,0%,100%);fill-opacity:1;" d="M 392 0 L 392 1600 L 400 1600 L 400 0 L 392 0 "/>
<path style=" stroke:none;fill-rule:nonzero;fill:rgb(0%,0%,100%);fill-opacity:1;" d="M 400 0 L 400 1600 L 408 1600 L 408 0 L 400 0 "/>
<path style=" stroke:none;fill-rule:nonzero;fill:rgb(100%,0%,0%);fill-opacity:1;" d="M 408 0 L 408 1600 L 416 1600 L 416 0 L 408 0 "/>
<path style=" stroke:none;fill-rule:nonzero;fill:rgb(0%,0%,100%);fill-opacity:1;" d="M 416 0 L 416 1600 L 424 1600 L 424 0 L 416 0 "/>
<path style=" stroke:none;fill-rule:nonzero;fill:rgb(100%,0%,0%);fill-opacity:1;" d="M 424 0 L 424 1600 L 432 1600 L 432 0 L 424 0 "/>
<path style=" stroke:none;fill-rule:nonzero;fill:rgb(100%,64.705882%,0%);fill-opacity:1;" d="M 432 0 L 432 1600 L 440 1600 L 440 0 L 432 0 "/>
<path style=" stroke:none;fill-rule:nonzero;fill:rgb(100%,64.705882%,0%);fill-opacity:1;" d="M 440 0 L 440 1600 L 448 1600 L 448 0 L 440 0 "/>
<path style=" stroke:none;fill-rule:nonzero;fill:rgb(0%,0%,100%);fill-opacity:1;" d="M 448 0 L 448 1600 L 456 1600 L 456 0 L 448 0 "/>
<path style=" stroke:none;fill-rule:nonzero;fill:rgb(100%,0%,0%);fill-opacity:1;" d="M 456 0 L 456 1600 L 464 1600 L 464 0 L 456 0 "/>
<path style=" stroke:none;fill-rule:nonzero;fill:rgb(0%,0%,100%);fill-opacity:1;" d="M 464 0 L 464 1600 L 472 1600 L 472 0 L 464 0 "/>
<path style=" stroke:none;fill-rule:nonzero;fill:rgb(100%,100%,100%);fill-opacity:1;" d="M 472 0 L 472 1600 L 480 1600 L 480 0 L 472 0 "/>
<path style=" stroke:none;fill-rule:nonzero;fill:rgb(0%,0%,100%);fill-opacity:1;" d="M 480 0 L 480 1600 L 488 1600 L 488 0 L 480 0 "/>
<path style=" stroke:none;fill-rule:nonzero;fill:rgb(100%,0%,0%);fill-opacity:1;" d="M 488 0 L 488 1600 L 496 1600 L 496 0 L 488 0 "/>
<path style=" stroke:none;fill-rule:nonzero;fill:rgb(100%,64.705882%,0%);fill-opacity:1;" d="M 496 0 L 496 1600 L 504 1600 L 504 0 L 496 0 "/>
<path style=" stroke:none;fill-rule:nonzero;fill:rgb(100%,64.705882%,0%);fill-opacity:1;" d="M 504 0 L 504 1600 L 512 1600 L 512 0 L 504 0 "/>
<path style=" stroke:none;fill-rule:nonzero;fill:rgb(100%,64.705882%,0%);fill-opacity:1;" d="M 512 0 L 512 1600 L 520 1600 L 520 0 L 512 0 "/>
<path style=" stroke:none;fill-rule:nonzero;fill:rgb(0%,0%,100%);fill-opacity:1;" d="M 520 0 L 520 1600 L 528 1600 L 528 0 L 520 0 "/>
<path style=" stroke:none;fill-rule:nonzero;fill:rgb(100%,0%,0%);fill-opacity:1;" d="M 528 0 L 528 1600 L 536 1600 L 536 0 L 528 0 "/>
<path style=" stroke:none;fill-rule:nonzero;fill:rgb(100%,64.705882%,0%);fill-opacity:1;" d="M 536 0 L 536 1600 L 544 1600 L 544 0 L 536 0 "/>
<path style=" stroke:none;fill-rule:nonzero;fill:rgb(100%,0%,0%);fill-opacity:1;" d="M 544 0 L 544 1600 L 552 1600 L 552 0 L 544 0 "/>
<path style=" stroke:none;fill-rule:nonzero;fill:rgb(100%,64.705882%,0%);fill-opacity:1;" d="M 552 0 L 552 1600 L 560 1600 L 560 0 L 552 0 "/>
<path style=" stroke:none;fill-rule:nonzero;fill:rgb(100%,0%,0%);fill-opacity:1;" d="M 560 0 L 560 1600 L 568 1600 L 568 0 L 560 0 "/>
<path style=" stroke:none;fill-rule:nonzero;fill:rgb(0%,0%,100%);fill-opacity:1;" d="M 568 0 L 568 1600 L 576 1600 L 576 0 L 568 0 "/>
<path style=" stroke:none;fill-rule:nonzero;fill:rgb(100%,0%,0%);fill-opacity:1;" d="M 576 0 L 576 1600 L 584 1600 L 584 0 L 576 0 "/>
<path style=" stroke:none;fill-rule:nonzero;fill:rgb(0%,0%,100%);fill-opacity:1;" d="M 584 0 L 584 1600 L 592 1600 L 592 0 L 584 0 "/>
<path style=" stroke:none;fill-rule:nonzero;fill:rgb(100%,64.705882%,0%);fill-opacity:1;" d="M 592 0 L 592 1600 L 600 1600 L 600 0 L 592 0 "/>
<path style=" stroke:none;fill-rule:nonzero;fill:rgb(100%,0%,0%);fill-opacity:1;" d="M 600 0 L 600 1600 L 608 1600 L 608 0 L 600 0 "/>
<path style=" stroke:none;fill-rule:nonzero;fill:rgb(100%,64.705882%,0%);fill-opacity:1;" d="M 608 0 L 608 1600 L 616 1600 L 616 0 L 608 0 "/>
<path style=" stroke:none;fill-rule:nonzero;fill:rgb(0%,0%,100%);fill-opacity:1;" d="M 616 0 L 616 1600 L 624 1600 L 624 0 L 616 0 "/>
<path style=" stroke:none;fill-rule:nonzero;fill:rgb(100%,0%,0%);fill-opacity:1;" d="M 624 0 L 624 1600 L 632 1600 L 632 0 L 624 0 "/>
<path style=" stroke:none;fill-rule:nonzero;fill:rgb(100%,100%,100%);fill-opacity:1;" d="M 632 0 L 632 1600 L 640 1600 L 640 0 L 632 0 "/>
<path style=" stroke:none;fill-rule:nonzero;fill:rgb(100%,64.705882%,0%);fill-opacity:1;" d="M 640 0 L 640 1600 L 648 1600 L 648 0 L 640 0 "/>
<path style=" stroke:none;fill-rule:nonzero;fill:rgb(100%,100%,100%);fill-opacity:1;" d="M 648 0 L 648 1600 L 656 1600 L 656 0 L 648 0 "/>
<path style=" stroke:none;fill-rule:nonzero;fill:rgb(0%,0%,100%);fill-opacity:1;" d="M 656 0 L 656 1600 L 664 1600 L 664 0 L 656 0 "/>
<path style=" stroke:none;fill-rule:nonzero;fill:rgb(100%,64.705882%,0%);fill-opacity:1;" d="M 664 0 L 664 1600 L 672 1600 L 672 0 L 664 0 "/>
<path style=" stroke:none;fill-rule:nonzero;fill:rgb(0%,0%,100%);fill-opacity:1;" d="M 672 0 L 672 1600 L 680 1600 L 680 0 L 672 0 "/>
<path style=" stroke:none;fill-rule:nonzero;fill:rgb(100%,64.705882%,0%);fill-opacity:1;" d="M 680 0 L 680 1600 L 688 1600 L 688 0 L 680 0 "/>
<path style=" stroke:none;fill-rule:nonzero;fill:rgb(0%,0%,100%);fill-opacity:1;" d="M 688 0 L 688 1600 L 696 1600 L 696 0 L 688 0 "/>
<path style=" stroke:none;fill-rule:nonzero;fill:rgb(100%,64.705882%,0%);fill-opacity:1;" d="M 696 0 L 696 1600 L 704 1600 L 704 0 L 696 0 "/>
<path style=" stroke:none;fill-rule:nonzero;fill:rgb(0%,0%,100%);fill-opacity:1;" d="M 704 0 L 704 1600 L 712 1600 L 712 0 L 704 0 "/>
<path style=" stroke:none;fill-rule:nonzero;fill:rgb(0%,0%,0%);fill-opacity:1;" d="M 712 0 L 712 1600 L 720 1600 L 720 0 L 712 0 "/>
<path style=" stroke:none;fill-rule:nonzero;fill:rgb(0%,0%,0%);fill-opacity:1;" d="M 720 0 L 720 1600 L 728 1600 L 728 0 L 720 0 "/>
<path style=" stroke:none;fill-rule:nonzero;fill:rgb(0%,0%,0%);fill-opacity:1;" d="M 728 0 L 728 1600 L 736 1600 L 736 0 L 728 0 "/>
<path style=" stroke:none;fill-rule:nonzero;fill:rgb(0%,0%,100%);fill-opacity:1;" d="M 736 0 L 736 1600 L 744 1600 L 744 0 L 736 0 "/>
<path style=" stroke:none;fill-rule:nonzero;fill:rgb(100%,0%,0%);fill-opacity:1;" d="M 744 0 L 744 1600 L 752 1600 L 752 0 L 744 0 "/>
<path style=" stroke:none;fill-rule:nonzero;fill:rgb(100%,100%,100%);fill-opacity:1;" d="M 752 0 L 752 1600 L 760 1600 L 760 0 L 752 0 "/>
<path style=" stroke:none;fill-rule:nonzero;fill:rgb(100%,64.705882%,0%);fill-opacity:1;" d="M 760 0 L 760 1600 L 768 1600 L 768 0 L 760 0 "/>
<path style=" stroke:none;fill-rule:nonzero;fill:rgb(100%,0%,0%);fill-opacity:1;" d="M 768 0 L 768 1600 L 776 1600 L 776 0 L 768 0 "/>
<path style=" stroke:none;fill-rule:nonzero;fill:rgb(0%,0%,100%);fill-opacity:1;" d="M 776 0 L 776 1600 L 784 1600 L 784 0 L 776 0 "/>
<path style=" stroke:none;fill-rule:nonzero;fill:rgb(100%,0%,0%);fill-opacity:1;" d="M 784 0 L 784 1600 L 792 1600 L 792 0 L 784 0 "/>
<path style=" stroke:none;fill-rule:nonzero;fill:rgb(100%,0%,0%);fill-opacity:1;" d="M 792 0 L 792 1600 L 800 1600 L 800 0 L 792 0 "/>
<path style=" stroke:none;fill-rule:nonzero;fill:rgb(0%,0%,100%);fill-opacity:1;" d="M 800 0 L 800 1600 L 808 1600 L 808 0 L 800 0 "/>
<path style=" stroke:none;fill-rule:nonzero;fill:rgb(100%,0%,0%);fill-opacity:1;" d="M 808 0 L 808 1600 L 816 1600 L 816 0 L 808 0 "/>
<path style=" stroke:none;fill-rule:nonzero;fill:rgb(100%,64.705882%,0%);fill-opacity:1;" d="M 816 0 L 816 1600 L 824 1600 L 824 0 L 816 0 "/>
<path style=" stroke:none;fill-rule:nonzero;fill:rgb(100%,0%,0%);fill-opacity:1;" d="M 824 0 L 824 1600 L 832 1600 L 832 0 L 824 0 "/>
<path style=" stroke:none;fill-rule:nonzero;fill:rgb(0%,0%,100%);fill-opacity:1;" d="M 832 0 L 832 1600 L 840 1600 L 840 0 L 832 0 "/>
<path style=" stroke:none;fill-rule:nonzero;fill:rgb(100%,0%,0%);fill-opacity:1;" d="M 840 0 L 840 1600 L 848 1600 L 848 0 L 840 0 "/>
<path style=" stroke:none;fill-rule:nonzero;fill:rgb(100%,64.705882%,0%);fill-opacity:1;" d="M 848 0 L 848 1600 L 856 1600 L 856 0 L 848 0 "/>
<path style=" stroke:none;fill-rule:nonzero;fill:rgb(0%,0%,100%);fill-opacity:1;" d="M 856 0 L 856 1600 L 864 1600 L 864 0 L 856 0 "/>
<path style=" stroke:none;fill-rule:nonzero;fill:rgb(100%,0%,0%);fill-opacity:1;" d="M 864 0 L 864 1600 L 872 1600 L 872 0 L 864 0 "/>
<path style=" stroke:none;fill-rule:nonzero;fill:rgb(0%,0%,100%);fill-opacity:1;" d="M 872 0 L 872 1600 L 880 1600 L 880 0 L 872 0 "/>
<path style=" stroke:none;fill-rule:nonzero;fill:rgb(100%,0%,0%);fill-opacity:1;" d="M 880 0 L 880 1600 L 888 1600 L 888 0 L 880 0 "/>
<path style=" stroke:none;fill-rule:nonzero;fill:rgb(100%,0%,0%);fill-opacity:1;" d="M 888 0 L 888 1600 L 896 1600 L 896 0 L 888 0 "/>
<path style=" stroke:none;fill-rule:nonzero;fill:rgb(100%,0%,0%);fill-opacity:1;" d="M 896 0 L 896 1600 L 904 1600 L 904 0 L 896 0 "/>
<path style=" stroke:none;fill-rule:nonzero;fill:rgb(100%,0%,0%);fill-opacity:1;" d="M 904 0 L 904 1600 L 912 1600 L 912 0 L 904 0 "/>
<path style=" stroke:none;fill-rule:nonzero;fill:rgb(0%,0%,0%);fill-opacity:1;" d="M 912 0 L 912 1600 L 920 1600 L 920 0 L 912 0 "/>
<path style=" stroke:none;fill-rule:nonzero;fill:rgb(0%,0%,100%);fill-opacity:1;" d="M 920 0 L 920 1600 L 928 1600 L 928 0 L 920 0 "/>
<path style=" stroke:none;fill-rule:nonzero;fill:rgb(100%,0%,0%);fill-opacity:1;" d="M 928 0 L 928 1600 L 936 1600 L 936 0 L 928 0 "/>
<path style=" stroke:none;fill-rule:nonzero;fill:rgb(100%,64.705882%,0%);fill-opacity:1;" d="M 936 0 L 936 1600 L 944 1600 L 944 0 L 936 0 "/>
<path style=" stroke:none;fill-rule:nonzero;fill:rgb(100%,0%,0%);fill-opacity:1;" d="M 944 0 L 944 1600 L 952 1600 L 952 0 L 944 0 "/>
<path style=" stroke:none;fill-rule:nonzero;fill:rgb(0%,0%,100%);fill-opacity:1;" d="M 952 0 L 952 1600 L 960 1600 L 960 0 L 952 0 "/>
<path style=" stroke:none;fill-rule:nonzero;fill:rgb(100%,0%,0%);fill-opacity:1;" d="M 960 0 L 960 1600 L 968 1600 L 968 0 L 960 0 "/>
<path style=" stroke:none;fill-rule:nonzero;fill:rgb(0%,0%,100%);fill-opacity:1;" d="M 968 0 L 968 1600 L 976 1600 L 976 0 L 968 0 "/>
<path style=" stroke:none;fill-rule:nonzero;fill:rgb(100%,64.705882%,0%);fill-opacity:1;" d="M 976 0 L 976 1600 L 984 1600 L 984 0 L 976 0 "/>
<path style=" stroke:none;fill-rule:nonzero;fill:rgb(0%,0%,0%);fill-opacity:1;" d="M 984 0 L 984 1600 L 992 1600 L 992 0 L 984 0 "/>
<path style=" stroke:none;fill-rule:nonzero;fill:rgb(100%,0%,0%);fill-opacity:1;" d="M 992 0 L 992 1600 L 1000 1600 L 1000 0 L 992 0 "/>
<path style=" stroke:none;fill-rule:nonzero;fill:rgb(100%,64.705882%,0%);fill-opacity:1;" d="M 1000 0 L 1000 1600 L 1008 1600 L 1008 0 L 1000 0 "/>
<path style=" stroke:none;fill-rule:nonzero;fill:rgb(100%,0%,0%);fill-opacity:1;" d="M 1008 0 L 1008 1600 L 1016 1600 L 1016 0 L 1008 0 "/>
<path style=" stroke:none;fill-rule:nonzero;fill:rgb(100%,100%,100%);fill-opacity:1;" d="M 1016 0 L 1016 1600 L 1024 1600 L 1024 0 L 1016 0 "/>
<path style=" stroke:none;fill-rule:nonzero;fill:rgb(0%,0%,0%);fill-opacity:1;" d="M 1024 0 L 1024 1600 L 1032 1600 L 1032 0 L 1024 0 "/>
<path style=" stroke:none;fill-rule:nonzero;fill:rgb(0%,0%,0%);fill-opacity:1;" d="M 1032 0 L 1032 1600 L 1040 1600 L 1040 0 L 1032 0 "/>
<path style=" stroke:none;fill-rule:nonzero;fill:rgb(0%,0%,0%);fill-opacity:1;" d="M 1040 0 L 1040 1600 L 1048 1600 L 1048 0 L 1040 0 "/>
<path style=" stroke:none;fill-rule:nonzero;fill:rgb(0%,0%,100%);fill-opacity:1;" d="M 1048 0 L 1048 1600 L 1056 1600 L 1056 0 L 1048 0 "/>
<path style=" stroke:none;fill-rule:nonzero;fill:rgb(100%,0%,0%);fill-opacity:1;" d="M 1056 0 L 1056 1600 L 1064 1600 L 1064 0 L 1056 0 "/>
<path style=" stroke:none;fill-rule:nonzero;fill:rgb(0%,0%,0%);fill-opacity:1;" d="M 1064 0 L 1064 1600 L 1072 1600 L 1072 0 L 1064 0 "/>
<path style=" stroke:none;fill-rule:nonzero;fill:rgb(100%,0%,0%);fill-opacity:1;" d="M 1072 0 L 1072 1600 L 1080 1600 L 1080 0 L 1072 0 "/>
<path style=" stroke:none;fill-rule:nonzero;fill:rgb(0%,0%,100%);fill-opacity:1;" d="M 1080 0 L 1080 1600 L 1088 1600 L 1088 0 L 1080 0 "/>
<path style=" stroke:none;fill-rule:nonzero;fill:rgb(100%,64.705882%,0%);fill-opacity:1;" d="M 1088 0 L 1088 1600 L 1096 1600 L 1096 0 L 1088 0 "/>
<path style=" stroke:none;fill-rule:nonzero;fill:rgb(100%,0%,0%);fill-opacity:1;" d="M 1096 0 L 1096 1600 L 1104 1600 L 1104 0 L 1096 0 "/>
<path style=" stroke:none;fill-rule:nonzero;fill:rgb(0%,0%,0%);fill-opacity:1;" d="M 1104 0 L 1104 1600 L 1112 1600 L 1112 0 L 1104 0 "/>
<path style=" stroke:none;fill-rule:nonzero;fill:rgb(100%,0%,0%);fill-opacity:1;" d="M 1112 0 L 1112 1600 L 1120 1600 L 1120 0 L 1112 0 "/>
<path style=" stroke:none;fill-rule:nonzero;fill:rgb(0%,0%,100%);fill-opacity:1;" d="M 1120 0 L 1120 1600 L 1128 1600 L 1128 0 L 1120 0 "/>
<path style=" stroke:none;fill-rule:nonzero;fill:rgb(100%,64.705882%,0%);fill-opacity:1;" d="M 1128 0 L 1128 1600 L 1136 1600 L 1136 0 L 1128 0 "/>
<path style=" stroke:none;fill-rule:nonzero;fill:rgb(100%,0%,0%);fill-opacity:1;" d="M 1136 0 L 1136 1600 L 1144 1600 L 1144 0 L 1136 0 "/>
<path style=" stroke:none;fill-rule:nonzero;fill:rgb(0%,0%,100%);fill-opacity:1;" d="M 1144 0 L 1144 1600 L 1152 1600 L 1152 0 L 1144 0 "/>
<path style=" stroke:none;fill-rule:nonzero;fill:rgb(100%,64.705882%,0%);fill-opacity:1;" d="M 1152 0 L 1152 1600 L 1160 1600 L 1160 0 L 1152 0 "/>
<path style=" stroke:none;fill-rule:nonzero;fill:rgb(100%,0%,0%);fill-opacity:1;" d="M 1160 0 L 1160 1600 L 1168 1600 L 1168 0 L 1160 0 "/>
<path style=" stroke:none;fill-rule:nonzero;fill:rgb(100%,0%,0%);fill-opacity:1;" d="M 1168 0 L 1168 1600 L 1176 1600 L 1176 0 L 1168 0 "/>
<path style=" stroke:none;fill-rule:nonzero;fill:rgb(100%,64.705882%,0%);fill-opacity:1;" d="M 1176 0 L 1176 1600 L 1184 1600 L 1184 0 L 1176 0 "/>
<path style=" stroke:none;fill-rule:nonzero;fill:rgb(100%,0%,0%);fill-opacity:1;" d="M 1184 0 L 1184 1600 L 1192 1600 L 1192 0 L 1184 0 "/>
<path style=" stroke:none;fill-rule:nonzero;fill:rgb(0%,0%,100%);fill-opacity:1;" d="M 1192 0 L 1192 1600 L 1200 1600 L 1200 0 L 1192 0 "/>
<path style=" stroke:none;fill-rule:nonzero;fill:rgb(100%,0%,0%);fill-opacity:1;" d="M 1200 0 L 1200 1600 L 1208 1600 L 1208 0 L 1200 0 "/>
<path style=" stroke:none;fill-rule:nonzero;fill:rgb(100%,64.705882%,0%);fill-opacity:1;" d="M 1208 0 L 1208 1600 L 1216 1600 L 1216 0 L 1208 0 "/>
<path style=" stroke:none;fill-rule:nonzero;fill:rgb(100%,64.705882%,0%);fill-opacity:1;" d="M 1216 0 L 1216 1600 L 1224 1600 L 1224 0 L 1216 0 "/>
<path style=" stroke:none;fill-rule:nonzero;fill:rgb(100%,64.705882%,0%);fill-opacity:1;" d="M 1224 0 L 1224 1600 L 1232 1600 L 1232 0 L 1224 0 "/>
<path style=" stroke:none;fill-rule:nonzero;fill:rgb(100%,0%,0%);fill-opacity:1;" d="M 1232 0 L 1232 1600 L 1240 1600 L 1240 0 L 1232 0 "/>
<path style=" stroke:none;fill-rule:nonzero;fill:rgb(100%,0%,0%);fill-opacity:1;" d="M 1240 0 L 1240 1600 L 1248 1600 L 1248 0 L 1240 0 "/>
<path style=" stroke:none;fill-rule:nonzero;fill:rgb(100%,0%,0%);fill-opacity:1;" d="M 1248 0 L 1248 1600 L 1256 1600 L 1256 0 L 1248 0 "/>
<path style=" stroke:none;fill-rule:nonzero;fill:rgb(100%,100%,100%);fill-opacity:1;" d="M 1256 0 L 1256 1600 L 1264 1600 L 1264 0 L 1256 0 "/>
<path style=" stroke:none;fill-rule:nonzero;fill:rgb(0%,0%,0%);fill-opacity:1;" d="M 1264 0 L 1264 1600 L 1272 1600 L 1272 0 L 1264 0 "/>
<path style=" stroke:none;fill-rule:nonzero;fill:rgb(100%,64.705882%,0%);fill-opacity:1;" d="M 1272 0 L 1272 1600 L 1280 1600 L 1280 0 L 1272 0 "/>
<path style=" stroke:none;fill-rule:nonzero;fill:rgb(0%,0%,0%);fill-opacity:1;" d="M 1280 0 L 1280 1600 L 1288 1600 L 1288 0 L 1280 0 "/>
<path style=" stroke:none;fill-rule:nonzero;fill:rgb(100%,64.705882%,0%);fill-opacity:1;" d="M 1288 0 L 1288 1600 L 1296 1600 L 1296 0 L 1288 0 "/>
<path style=" stroke:none;fill-rule:nonzero;fill:rgb(0%,0%,100%);fill-opacity:1;" d="M 1296 0 L 1296 1600 L 1304 1600 L 1304 0 L 1296 0 "/>
<path style=" stroke:none;fill-rule:nonzero;fill:rgb(100%,64.705882%,0%);fill-opacity:1;" d="M 1304 0 L 1304 1600 L 1312 1600 L 1312 0 L 1304 0 "/>
<path style=" stroke:none;fill-rule:nonzero;fill:rgb(0%,0%,100%);fill-opacity:1;" d="M 1312 0 L 1312 1600 L 1320 1600 L 1320 0 L 1312 0 "/>
<path style=" stroke:none;fill-rule:nonzero;fill:rgb(0%,0%,100%);fill-opacity:1;" d="M 1320 0 L 1320 1600 L 1328 1600 L 1328 0 L 1320 0 "/>
<path style=" stroke:none;fill-rule:nonzero;fill:rgb(100%,0%,0%);fill-opacity:1;" d="M 1328 0 L 1328 1600 L 1336 1600 L 1336 0 L 1328 0 "/>
<path style=" stroke:none;fill-rule:nonzero;fill:rgb(0%,0%,100%);fill-opacity:1;" d="M 1336 0 L 1336 1600 L 1344 1600 L 1344 0 L 1336 0 "/>
<path style=" stroke:none;fill-rule:nonzero;fill:rgb(100%,0%,0%);fill-opacity:1;" d="M 1344 0 L 1344 1600 L 1352 1600 L 1352 0 L 1344 0 "/>
<path style=" stroke:none;fill-rule:nonzero;fill:rgb(0%,0%,100%);fill-opacity:1;" d="M 1352 0 L 1352 1600 L 1360 1600 L 1360 0 L 1352 0 "/>
<path style=" stroke:none;fill-rule:nonzero;fill:rgb(100%,64.705882%,0%);fill-opacity:1;" d="M 1360 0 L 1360 1600 L 1368 1600 L 1368 0 L 1360 0 "/>
<path style=" stroke:none;fill-rule:nonzero;fill:rgb(0%,0%,100%);fill-opacity:1;" d="M 1368 0 L 1368 1600 L 1376 1600 L 1376 0 L 1368 0 "/>
<path style=" stroke:none;fill-rule:nonzero;fill:rgb(100%,64.705882%,0%);fill-opacity:1;" d="M 1376 0 L 1376 1600 L 1384 1600 L 1384 0 L 1376 0 "/>
<path style=" stroke:none;fill-rule:nonzero;fill:rgb(100%,0%,0%);fill-opacity:1;" d="M 1384 0 L 1384 1600 L 1392 1600 L 1392 0 L 1384 0 "/>
<path style=" stroke:none;fill-rule:nonzero;fill:rgb(0%,0%,100%);fill-opacity:1;" d="M 1392 0 L 1392 1600 L 1400 1600 L 1400 0 L 1392 0 "/>
<path style=" stroke:none;fill-rule:nonzero;fill:rgb(100%,64.705882%,0%);fill-opacity:1;" d="M 1400 0 L 1400 1600 L 1408 1600 L 1408 0 L 1400 0 "/>
<path style=" stroke:none;fill-rule:nonzero;fill:rgb(0%,0%,100%);fill-opacity:1;" d="M 1408 0 L 1408 1600 L 1416 1600 L 1416 0 L 1408 0 "/>
<path style=" stroke:none;fill-rule:nonzero;fill:rgb(0%,0%,100%);fill-opacity:1;" d="M 1416 0 L 1416 1600 L 1424 1600 L 1424 0 L 1416 0 "/>
<path style=" stroke:none;fill-rule:nonzero;fill:rgb(100%,64.705882%,0%);fill-opacity:1;" d="M 1424 0 L 1424 1600 L 1432 1600 L 1432 0 L 1424 0 "/>
<path style=" stroke:none;fill-rule:nonzero;fill:rgb(100%,64.705882%,0%);fill-opacity:1;" d="M 1432 0 L 1432 1600 L 1440 1600 L 1440 0 L 1432 0 "/>
<path style=" stroke:none;fill-rule:nonzero;fill:rgb(100%,64.705882%,0%);fill-opacity:1;" d="M 1440 0 L 1440 1600 L 1448 1600 L 1448 0 L 1440 0 "/>
<path style=" stroke:none;fill-rule:nonzero;fill:rgb(100%,0%,0%);fill-opacity:1;" d="M 1448 0 L 1448 1600 L 1456 1600 L 1456 0 L 1448 0 "/>
<path style=" stroke:none;fill-rule:nonzero;fill:rgb(100%,100%,100%);fill-opacity:1;" d="M 1456 0 L 1456 1600 L 1464 1600 L 1464 0 L 1456 0 "/>
<path style=" stroke:none;fill-rule:nonzero;fill:rgb(100%,0%,0%);fill-opacity:1;" d="M 1464 0 L 1464 1600 L 1472 1600 L 1472 0 L 1464 0 "/>
<path style=" stroke:none;fill-rule:nonzero;fill:rgb(100%,64.705882%,0%);fill-opacity:1;" d="M 1472 0 L 1472 1600 L 1480 1600 L 1480 0 L 1472 0 "/>
<path style=" stroke:none;fill-rule:nonzero;fill:rgb(0%,0%,100%);fill-opacity:1;" d="M 1480 0 L 1480 1600 L 1488 1600 L 1488 0 L 1480 0 "/>
<path style=" stroke:none;fill-rule:nonzero;fill:rgb(100%,64.705882%,0%);fill-opacity:1;" d="M 1488 0 L 1488 1600 L 1496 1600 L 1496 0 L 1488 0 "/>
<path style=" stroke:none;fill-rule:nonzero;fill:rgb(100%,0%,0%);fill-opacity:1;" d="M 1496 0 L 1496 1600 L 1504 1600 L 1504 0 L 1496 0 "/>
<path style=" stroke:none;fill-rule:nonzero;fill:rgb(100%,0%,0%);fill-opacity:1;" d="M 1504 0 L 1504 1600 L 1512 1600 L 1512 0 L 1504 0 "/>
<path style=" stroke:none;fill-rule:nonzero;fill:rgb(100%,0%,0%);fill-opacity:1;" d="M 1512 0 L 1512 1600 L 1520 1600 L 1520 0 L 1512 0 "/>
<path style=" stroke:none;fill-rule:nonzero;fill:rgb(100%,100%,100%);fill-opacity:1;" d="M 1520 0 L 1520 1600 L 1528 1600 L 1528 0 L 1520 0 "/>
<path style=" stroke:none;fill-rule:nonzero;fill:rgb(100%,64.705882%,0%);fill-opacity:1;" d="M 1528 0 L 1528 1600 L 1536 1600 L 1536 0 L 1528 0 "/>
<path style=" stroke:none;fill-rule:nonzero;fill:rgb(0%,0%,100%);fill-opacity:1;" d="M 1536 0 L 1536 1600 L 1544 1600 L 1544 0 L 1536 0 "/>
<path style=" stroke:none;fill-rule:nonzero;fill:rgb(0%,0%,100%);fill-opacity:1;" d="M 1544 0 L 1544 1600 L 1552 1600 L 1552 0 L 1544 0 "/>
<path style=" stroke:none;fill-rule:nonzero;fill:rgb(0%,0%,100%);fill-opacity:1;" d="M 1552 0 L 1552 1600 L 1560 1600 L 1560 0 L 1552 0 "/>
<path style=" stroke:none;fill-rule:nonzero;fill:rgb(100%,0%,0%);fill-opacity:1;" d="M 1560 0 L 1560 1600 L 1568 1600 L 1568 0 L 1560 0 "/>
<path style=" stroke:none;fill-rule:nonzero;fill:rgb(0%,0%,100%);fill-opacity:1;" d="M 1568 0 L 1568 1600 L 1576 1600 L 1576 0 L 1568 0 "/>
<path style=" stroke:none;fill-rule:nonzero;fill:rgb(100%,64.705882%,0%);fill-opacity:1;" d="M 1576 0 L 1576 1600 L 1584 1600 L 1584 0 L 1576 0 "/>
<path style=" stroke:none;fill-rule:nonzero;fill:rgb(100%,100%,100%);fill-opacity:1;" d="M 1584 0 L 1584 1600 L 1592 1600 L 1592 0 L 1584 0 "/>
<path style=" stroke:none;fill-rule:nonzero;fill:rgb(0%,0%,100%);fill-opacity:1;" d="M 1592 0 L 1592 1600 L 1600 1600 L 1600 0 L 1592 0 "/>
</g>
</svg>
