<?xml version="1.0" encoding="UTF-8"?>
<svg xmlns="http://www.w3.org/2000/svg" xmlns:xlink="http://www.w3.org/1999/xlink" width="400pt" height="400pt" viewBox="0 0 400 400" version="1.1">
<g id="surface2">
<rect x="0" y="0" width="400" height="400" style="fill:rgb(100%,100%,100%);fill-opacity:1;stroke:none;"/>
<path style=" stroke:none;fill-rule:nonzero;fill:rgb(0%,0%,0%);fill-opacity:1;" d="M 0 -7 L 0 14 L 20 2.453125 L 20 -18.546875 L 0 -7 "/>
<path style=" stroke:none;fill-rule:nonzero;fill:rgb(100%,100%,100%);fill-opacity:1;" d="M 0 13 L 0 34 L 20 22.453125 L 20 1.453125 L 0 13 "/>
<path style=" stroke:none;fill-rule:nonzero;fill:rgb(0%,0%,0%);fill-opacity:1;" d="M 0 33 L 0 54 L 20 42.453125 L 20 21.453125 L 0 33 "/>
<path style=" stroke:none;fill-rule:nonzero;fill:rgb(100%,100%,100%);fill-opacity:1;" d="M 0 53 L 0 74 L 20 62.453125 L 20 41.453125 L 0 53 "/>
<path style=" stroke:none;fill-rule:nonzero;fill:rgb(0%,0%,0%);fill-opacity:1;" d="M 0 73 L 0 94 L 20 82.453125 L 20 61.453125 L 0 73 "/>
<path style=" stroke:none;fill-rule:nonzero;fill:rgb(100%,100%,100%);fill-opacity:1;" d="M 0 93 L 0 114 L 20 102.453125 L 20 81.453125 L 0 93 "/>
<path style=" stroke:none;fill-rule:nonzero;fill:rgb(0%,0%,0%);fill-opacity:1;" d="M 0 113 L 0 134 L 20 122.453125 L 20 101.453125 L 0 113 "/>
<path style=" stroke:none;fill-rule:nonzero;fill:rgb(100%,100%,100%);fill-opacity:1;" d="M 0 133 L 0 154 L 20 142.453125 L 20 121.453125 L 0 133 "/>
<path style=" stroke:none;fill-rule:nonzero;fill:rgb(0%,0%,0%);fill-opacity:1;" d="M 0 153 L 0 174 L 20 162.453125 L 20 141.453125 L 0 153 "/>
<path style=" stroke:none;fill-rule:nonzero;fill:rgb(100%,100%,100%);fill-opacity:1;" d="M 0 173 L 0 194 L 20 182.453125 L 20 161.453125 L 0 173 "/>
<path style=" stroke:none;fill-rule:nonzero;fill:rgb(0%,0%,0%);fill-opacity:1;" d="M 0 193 L 0 214 L 20 202.453125 L 20 181.453125 L 0 193 "/>
<path style=" stroke:none;fill-rule:nonzero;fill:rgb(100%,100%,100%);fill-opacity:1;" d="M 0 213 L 0 234 L 20 222.453125 L 20 201.453125 L 0 213 "/>
<path style=" stroke:none;fill-rule:nonzero;fill:rgb(0%,0%,0%);fill-opacity:1;" d="M 0 233 L 0 254 L 20 242.453125 L 20 221.453125 L 0 233 "/>
<path style=" stroke:none;fill-rule:nonzero;fill:rgb(100%,100%,100%);fill-opacity:1;" d="M 0 253 L 0 274 L 20 262.453125 L 20 241.453125 L 0 253 "/>
<path style=" stroke:none;fill-rule:nonzero;fill:rgb(0%,0%,0%);fill-opacity:1;" d="M 0 273 L 0 294 L 20 282.453125 L 20 261.453125 L 0 273 "/>
<path style=" stroke:none;fill-rule:nonzero;fill:rgb(100%,100%,100%);fill-opacity:1;" d="M 0 293 L 0 314 L 20 302.453125 L 20 281.453125 L 0 293 "/>
<path style=" stroke:none;fill-rule:nonzero;fill:rgb(0%,0%,0%);fill-opacity:1;" d="M 0 313 L 0 334 L 20 322.453125 L 20 301.453125 L 0 313 "/>
<path style=" stroke:none;fill-rule:nonzero;fill:rgb(100%,100%,100%);fill-opacity:1;" d="M 0 333 L 0 354 L 20 342.453125 L 20 321.453125 L 0 333 "/>
<path style=" stroke:none;fill-rule:nonzero;fill:rgb(0%,0%,0%);fill-opacity:1;" d="M 0 353 L 0 374 L 20 362.453125 L 20 341.453125 L 0 353 "/>
<path style=" stroke:none;fill-rule:nonzero;fill:rgb(100%,100%,100%);fill-opacity:1;" d="M 0 373 L 0 394 L 20 382.453125 L 20 361.453125 L 0 373 "/>
<path style=" stroke:none;fill-rule:nonzero;fill:rgb(0%,0%,0%);fill-opacity:1;" d="M 0 393 L 0 414 L 20 402.453125 L 20 381.453125 L 0 393 "/>
<path style=" stroke:none;fill-rule:nonzero;fill:rgb(100%,100%,100%);fill-opacity:1;" d="M 20 -18 L 20 3 L 40 -8.546875 L 40 -29.546875 L 20 -18 "/>
<path style=" stroke:none;fill-rule:nonzero;fill:rgb(0%,0%,0%);fill-opacity:1;" d="M 20 2 L 20 23 L 40 11.453125 L 40 -9.546875 L 20 2 "/>
<path style=" stroke:none;fill-rule:nonzero;fill:rgb(100%,100%,100%);fill-opacity:1;" d="M 20 22 L 20 43 L 40 31.453125 L 40 10.453125 L 20 22 "/>
<path style=" stroke:none;fill-rule:nonzero;fill:rgb(0%,0%,0%);fill-opacity:1;" d="M 20 42 L 20 63 L 40 51.453125 L 40 30.453125 L 20 42 "/>
<path style=" stroke:none;fill-rule:nonzero;fill:rgb(100%,100%,100%);fill-opacity:1;" d="M 20 62 L 20 83 L 40 71.453125 L 40 50.453125 L 20 62 "/>
<path style=" stroke:none;fill-rule:nonzero;fill:rgb(0%,0%,0%);fill-opacity:1;" d="M 20 82 L 20 103 L 40 91.453125 L 40 70.453125 L 20 82 "/>
<path style=" stroke:none;fill-rule:nonzero;fill:rgb(100%,100%,100%);fill-opacity:1;" d="M 20 102 L 20 123 L 40 111.453125 L 40 90.453125 L 20 102 "/>
<path style=" stroke:none;fill-rule:nonzero;fill:rgb(0%,0%,0%);fill-opacity:1;" d="M 20 122 L 20 143 L 40 131.453125 L 40 110.453125 L 20 122 "/>
<path style=" stroke:none;fill-rule:nonzero;fill:rgb(100%,100%,100%);fill-opacity:1;" d="M 20 142 L 20 163 L 40 151.453125 L 40 130.453125 L 20 142 "/>
<path style=" stroke:none;fill-rule:nonzero;fill:rgb(0%,0%,0%);fill-opacity:1;" d="M 20 162 L 20 183 L 40 171.453125 L 40 150.453125 L 20 162 "/>
<path style=" stroke:none;fill-rule:nonzero;fill:rgb(100%,100%,100%);fill-opacity:1;" d="M 20 182 L 20 203 L 40 191.453125 L 40 170.453125 L 20 182 "/>
<path style=" stroke:none;fill-rule:nonzero;fill:rgb(0%,0%,0%);fill-opacity:1;" d="M 20 202 L 20 223 L 40 211.453125 L 40 190.453125 L 20 202 "/>
<path style=" stroke:none;fill-rule:nonzero;fill:rgb(100%,100%,100%);fill-opacity:1;" d="M 20 222 L 20 243 L 40 231.453125 L 40 210.453125 L 20 222 "/>
<path style=" stroke:none;fill-rule:nonzero;fill:rgb(0%,0%,0%);fill-opacity:1;" d="M 20 242 L 20 263 L 40 251.453125 L 40 230.453125 L 20 242 "/>
<path style=" stroke:none;fill-rule:nonzero;fill:rgb(100%,100%,100%);fill-opacity:1;" d="M 20 262 L 20 283 L 40 271.453125 L 40 250.453125 L 20 262 "/>
<path style=" stroke:none;fill-rule:nonzero;fill:rgb(0%,0%,0%);fill-opacity:1;" d="M 20 282 L 20 303 L 40 291.453125 L 40 270.453125 L 20 282 "/>
<path style=" stroke:none;fill-rule:nonzero;fill:rgb(100%,100%,100%);fill-opacity:1;" d="M 20 302 L 20 323 L 40 311.453125 L 40 290.453125 L 20 302 "/>
<path style=" stroke:none;fill-rule:nonzero;fill:rgb(0%,0%,0%);fill-opacity:1;" d="M 20 322 L 20 343 L 40 331.453125 L 40 310.453125 L 20 322 "/>
<path style=" stroke:none;fill-rule:nonzero;fill:rgb(100%,100%,100%);fill-opacity:1;" d="M 20 342 L 20 363 L 40 351.453125 L 40 330.453125 L 20 342 "/>
<path style=" stroke:none;fill-rule:nonzero;fill:rgb(0%,0%,0%);fill-opacity:1;" d="M 20 362 L 20 383 L 40 371.453125 L 40 350.453125 L 20 362 "/>
<path style=" stroke:none;fill-rule:nonzero;fill:rgb(100%,100%,100%);fill-opacity:1;" d="M 20 382 L 20 403 L 40 391.453125 L 40 370.453125 L 20 382 "/>
<path style=" stroke:none;fill-rule:nonzero;fill:rgb(0%,0%,0%);fill-opacity:1;" d="M 20 402 L 20 423 L 40 411.453125 L 40 390.453125 L 20 402 "/>
<path style=" stroke:none;fill-rule:nonzero;fill:rgb(100%,100%,100%);fill-opacity:1;" d="M 40 -10 L 40 11 L 60 -0.546875 L 60 -21.546875 L 40 -10 "/>
<path style=" stroke:none;fill-rule:nonzero;fill:rgb(0%,0%,0%);fill-opacity:1;" d="M 40 10 L 40 31 L 60 19.453125 L 60 -1.546875 L 40 10 "/>
<path style=" stroke:none;fill-rule:nonzero;fill:rgb(100%,100%,100%);fill-opacity:1;" d="M 40 30 L 40 51 L 60 39.453125 L 60 18.453125 L 40 30 "/>
<path style=" stroke:none;fill-rule:nonzero;fill:rgb(0%,0%,0%);fill-opacity:1;" d="M 40 50 L 40 71 L 60 59.453125 L 60 38.453125 L 40 50 "/>
<path style=" stroke:none;fill-rule:nonzero;fill:rgb(100%,100%,100%);fill-opacity:1;" d="M 40 70 L 40 91 L 60 79.453125 L 60 58.453125 L 40 70 "/>
<path style=" stroke:none;fill-rule:nonzero;fill:rgb(0%,0%,0%);fill-opacity:1;" d="M 40 90 L 40 111 L 60 99.453125 L 60 78.453125 L 40 90 "/>
<path style=" stroke:none;fill-rule:nonzero;fill:rgb(100%,100%,100%);fill-opacity:1;" d="M 40 110 L 40 131 L 60 119.453125 L 60 98.453125 L 40 110 "/>
<path style=" stroke:none;fill-rule:nonzero;fill:rgb(0%,0%,0%);fill-opacity:1;" d="M 40 130 L 40 151 L 60 139.453125 L 60 118.453125 L 40 130 "/>
<path style=" stroke:none;fill-rule:nonzero;fill:rgb(100%,100%,100%);fill-opacity:1;" d="M 40 150 L 40 171 L 60 159.453125 L 60 138.453125 L 40 150 "/>
<path style=" stroke:none;fill-rule:nonzero;fill:rgb(0%,0%,0%);fill-opacity:1;" d="M 40 170 L 40 191 L 60 179.453125 L 60 158.453125 L 40 170 "/>
<path style=" stroke:none;fill-rule:nonzero;fill:rgb(100%,100%,100%);fill-opacity:1;" d="M 40 190 L 40 211 L 60 199.453125 L 60 178.453125 L 40 190 "/>
<path style=" stroke:none;fill-rule:nonzero;fill:rgb(0%,0%,0%);fill-opacity:1;" d="M 40 210 L 40 231 L 60 219.453125 L 60 198.453125 L 40 210 "/>
<path style=" stroke:none;fill-rule:nonzero;fill:rgb(100%,100%,100%);fill-opacity:1;" d="M 40 230 L 40 251 L 60 239.453125 L 60 218.453125 L 40 230 "/>
<path style=" stroke:none;fill-rule:nonzero;fill:rgb(0%,0%,0%);fill-opacity:1;" d="M 40 250 L 40 271 L 60 259.453125 L 60 238.453125 L 40 250 "/>
<path style=" stroke:none;fill-rule:nonzero;fill:rgb(100%,100%,100%);fill-opacity:1;" d="M 40 270 L 40 291 L 60 279.453125 L 60 258.453125 L 40 270 "/>
<path style=" stroke:none;fill-rule:nonzero;fill:rgb(0%,0%,0%);fill-opacity:1;" d="M 40 290 L 40 311 L 60 299.453125 L 60 278.453125 L 40 290 "/>
<path style=" stroke:none;fill-rule:nonzero;fill:rgb(100%,100%,100%);fill-opacity:1;" d="M 40 310 L 40 331 L 60 319.453125 L 60 298.453125 L 40 310 "/>
<path style=" stroke:none;fill-rule:nonzero;fill:rgb(0%,0%,0%);fill-opacity:1;" d="M 40 330 L 40 351 L 60 339.453125 L 60 318.453125 L 40 330 "/>
<path style=" stroke:none;fill-rule:nonzero;fill:rgb(100%,100%,100%);fill-opacity:1;" d="M 40 350 L 40 371 L 60 359.453125 L 60 338.453125 L 40 350 "/>
<path style=" stroke:none;fill-rule:nonzero;fill:rgb(0%,0%,0%);fill-opacity:1;" d="M 40 370 L 40 391 L 60 379.453125 L 60 358.453125 L 40 370 "/>
<path style=" stroke:none;fill-rule:nonzero;fill:rgb(100%,100%,100%);fill-opacity:1;" d="M 40 390 L 40 411 L 60 399.453125 L 60 378.453125 L 40 390 "/>
<path style=" stroke:none;fill-rule:nonzero;fill:rgb(0%,0%,0%);fill-opacity:1;" d="M 40 410 L 40 431 L 60 419.453125 L 60 398.453125 L 40 410 "/>
<path style=" stroke:none;fill-rule:nonzero;fill:rgb(100%,100%,100%);fill-opacity:1;" d="M 60 -1 L 60 20 L 80 8.453125 L 80 -12.546875 L 60 -1 "/>
<path style=" stroke:none;fill-rule:nonzero;fill:rgb(0%,0%,0%);fill-opacity:1;" d="M 60 19 L 60 40 L 80 28.453125 L 80 7.453125 L 60 19 "/>
<path style=" stroke:none;fill-rule:nonzero;fill:rgb(100%,100%,100%);fill-opacity:1;" d="M 60 39 L 60 60 L 80 48.453125 L 80 27.453125 L 60 39 "/>
<path style=" stroke:none;fill-rule:nonzero;fill:rgb(0%,0%,0%);fill-opacity:1;" d="M 60 59 L 60 80 L 80 68.453125 L 80 47.453125 L 60 59 "/>
<path style=" stroke:none;fill-rule:nonzero;fill:rgb(100%,100%,100%);fill-opacity:1;" d="M 60 79 L 60 100 L 80 88.453125 L 80 67.453125 L 60 79 "/>
<path style=" stroke:none;fill-rule:nonzero;fill:rgb(0%,0%,0%);fill-opacity:1;" d="M 60 99 L 60 120 L 80 108.453125 L 80 87.453125 L 60 99 "/>
<path style=" stroke:none;fill-rule:nonzero;fill:rgb(100%,100%,100%);fill-opacity:1;" d="M 60 119 L 60 140 L 80 128.453125 L 80 107.453125 L 60 119 "/>
<path style=" stroke:none;fill-rule:nonzero;fill:rgb(0%,0%,0%);fill-opacity:1;" d="M 60 139 L 60 160 L 80 148.453125 L 80 127.453125 L 60 139 "/>
<path style=" stroke:none;fill-rule:nonzero;fill:rgb(100%,100%,100%);fill-opacity:1;" d="M 60 159 L 60 180 L 80 168.453125 L 80 147.453125 L 60 159 "/>
<path style=" stroke:none;fill-rule:nonzero;fill:rgb(0%,0%,0%);fill-opacity:1;" d="M 60 179 L 60 200 L 80 188.453125 L 80 167.453125 L 60 179 "/>
<path style=" stroke:none;fill-rule:nonzero;fill:rgb(100%,100%,100%);fill-opacity:1;" d="M 60 199 L 60 220 L 80 208.453125 L 80 187.453125 L 60 199 "/>
<path style=" stroke:none;fill-rule:nonzero;fill:rgb(0%,0%,0%);fill-opacity:1;" d="M 60 219 L 60 240 L 80 228.453125 L 80 207.453125 L 60 219 "/>
<path style=" stroke:none;fill-rule:nonzero;fill:rgb(100%,100%,100%);fill-opacity:1;" d="M 60 239 L 60 260 L 80 248.453125 L 80 227.453125 L 60 239 "/>
<path style=" stroke:none;fill-rule:nonzero;fill:rgb(0%,0%,0%);fill-opacity:1;" d="M 60 259 L 60 280 L 80 268.453125 L 80 247.453125 L 60 259 "/>
<path style=" stroke:none;fill-rule:nonzero;fill:rgb(100%,100%,100%);fill-opacity:1;" d="M 60 279 L 60 300 L 80 288.453125 L 80 267.453125 L 60 279 "/>
<path style=" stroke:none;fill-rule:nonzero;fill:rgb(0%,0%,0%);fill-opacity:1;" d="M 60 299 L 60 320 L 80 308.453125 L 80 287.453125 L 60 299 "/>
<path style=" stroke:none;fill-rule:nonzero;fill:rgb(100%,100%,100%);fill-opacity:1;" d="M 60 319 L 60 340 L 80 328.453125 L 80 307.453125 L 60 319 "/>
<path style=" stroke:none;fill-rule:nonzero;fill:rgb(0%,0%,0%);fill-opacity:1;" d="M 60 339 L 60 360 L 80 348.453125 L 80 327.453125 L 60 339 "/>
<path style=" stroke:none;fill-rule:nonzero;fill:rgb(100%,100%,100%);fill-opacity:1;" d="M 60 359 L 60 380 L 80 368.453125 L 80 347.453125 L 60 359 "/>
<path style=" stroke:none;fill-rule:nonzero;fill:rgb(0%,0%,0%);fill-opacity:1;" d="M 60 379 L 60 400 L 80 388.453125 L 80 367.453125 L 60 379 "/>
<path style=" stroke:none;fill-rule:nonzero;fill:rgb(100%,100%,100%);fill-opacity:1;" d="M 60 399 L 60 420 L 80 408.453125 L 80 387.453125 L 60 399 "/>
<path style=" stroke:none;fill-rule:nonzero;fill:rgb(0%,0%,0%);fill-opacity:1;" d="M 80 -13 L 80 8 L 100 -3.546875 L 100 -24.546875 L 80 -13 "/>
<path style=" stroke:none;fill-rule:nonzero;fill:rgb(100%,100%,100%);fill-opacity:1;" d="M 80 7 L 80 28 L 100 16.453125 L 100 -4.546875 L 80 7 "/>
<path style=" stroke:none;fill-rule:nonzero;fill:rgb(0%,0%,0%);fill-opacity:1;" d="M 80 27 L 80 48 L 100 36.453125 L 100 15.453125 L 80 27 "/>
<path style=" stroke:none;fill-rule:nonzero;fill:rgb(100%,100%,100%);fill-opacity:1;" d="M 80 47 L 80 68 L 100 56.453125 L 100 35.453125 L 80 47 "/>
<path style=" stroke:none;fill-rule:nonzero;fill:rgb(0%,0%,0%);fill-opacity:1;" d="M 80 67 L 80 88 L 100 76.453125 L 100 55.453125 L 80 67 "/>
<path style=" stroke:none;fill-rule:nonzero;fill:rgb(100%,100%,100%);fill-opacity:1;" d="M 80 87 L 80 108 L 100 96.453125 L 100 75.453125 L 80 87 "/>
<path style=" stroke:none;fill-rule:nonzero;fill:rgb(0%,0%,0%);fill-opacity:1;" d="M 80 107 L 80 128 L 100 116.453125 L 100 95.453125 L 80 107 "/>
<path style=" stroke:none;fill-rule:nonzero;fill:rgb(100%,100%,100%);fill-opacity:1;" d="M 80 127 L 80 148 L 100 136.453125 L 100 115.453125 L 80 127 "/>
<path style=" stroke:none;fill-rule:nonzero;fill:rgb(0%,0%,0%);fill-opacity:1;" d="M 80 147 L 80 168 L 100 156.453125 L 100 135.453125 L 80 147 "/>
<path style=" stroke:none;fill-rule:nonzero;fill:rgb(100%,100%,100%);fill-opacity:1;" d="M 80 167 L 80 188 L 100 176.453125 L 100 155.453125 L 80 167 "/>
<path style=" stroke:none;fill-rule:nonzero;fill:rgb(0%,0%,0%);fill-opacity:1;" d="M 80 187 L 80 208 L 100 196.453125 L 100 175.453125 L 80 187 "/>
<path style=" stroke:none;fill-rule:nonzero;fill:rgb(100%,100%,100%);fill-opacity:1;" d="M 80 207 L 80 228 L 100 216.453125 L 100 195.453125 L 80 207 "/>
<path style=" stroke:none;fill-rule:nonzero;fill:rgb(0%,0%,0%);fill-opacity:1;" d="M 80 227 L 80 248 L 100 236.453125 L 100 215.453125 L 80 227 "/>
<path style=" stroke:none;fill-rule:nonzero;fill:rgb(100%,100%,100%);fill-opacity:1;" d="M 80 247 L 80 268 L 100 256.453125 L 100 235.453125 L 80 247 "/>
<path style=" stroke:none;fill-rule:nonzero;fill:rgb(0%,0%,0%);fill-opacity:1;" d="M 80 267 L 80 288 L 100 276.453125 L 100 255.453125 L 80 267 "/>
<path style=" stroke:none;fill-rule:nonzero;fill:rgb(100%,100%,100%);fill-opacity:1;" d="M 80 287 L 80 308 L 100 296.453125 L 100 275.453125 L 80 287 "/>
<path style=" stroke:none;fill-rule:nonzero;fill:rgb(0%,0%,0%);fill-opacity:1;" d="M 80 307 L 80 328 L 100 316.453125 L 100 295.453125 L 80 307 "/>
<path style=" stroke:none;fill-rule:nonzero;fill:rgb(100%,100%,100%);fill-opacity:1;" d="M 80 327 L 80 348 L 100 336.453125 L 100 315.453125 L 80 327 "/>
<path style=" stroke:none;fill-rule:nonzero;fill:rgb(0%,0%,0%);fill-opacity:1;" d="M 80 347 L 80 368 L 100 356.453125 L 100 335.453125 L 80 347 "/>
<path style=" stroke:none;fill-rule:nonzero;fill:rgb(100%,100%,100%);fill-opacity:1;" d="M 80 367 L 80 388 L 100 376.453125 L 100 355.453125 L 80 367 "/>
<path style=" stroke:none;fill-rule:nonzero;fill:rgb(0%,0%,0%);fill-opacity:1;" d="M 80 387 L 80 408 L 100 396.453125 L 100 375.453125 L 80 387 "/>
<path style=" stroke:none;fill-rule:nonzero;fill:rgb(100%,100%,100%);fill-opacity:1;" d="M 80 407 L 80 428 L 100 416.453125 L 100 395.453125 L 80 407 "/>
<path style=" stroke:none;fill-rule:nonzero;fill:rgb(0%,0%,0%);fill-opacity:1;" d="M 100 -4 L 100 17 L 120 5.453125 L 120 -15.546875 L 100 -4 "/>
<path style=" stroke:none;fill-rule:nonzero;fill:rgb(100%,100%,100%);fill-opacity:1;" d="M 100 16 L 100 37 L 120 25.453125 L 120 4.453125 L 100 16 "/>
<path style=" stroke:none;fill-rule:nonzero;fill:rgb(0%,0%,0%);fill-opacity:1;" d="M 100 36 L 100 57 L 120 45.453125 L 120 24.453125 L 100 36 "/>
<path style=" stroke:none;fill-rule:nonzero;fill:rgb(100%,100%,100%);fill-opacity:1;" d="M 100 56 L 100 77 L 120 65.453125 L 120 44.453125 L 100 56 "/>
<path style=" stroke:none;fill-rule:nonzero;fill:rgb(0%,0%,0%);fill-opacity:1;" d="M 100 76 L 100 97 L 120 85.453125 L 120 64.453125 L 100 76 "/>
<path style=" stroke:none;fill-rule:nonzero;fill:rgb(100%,100%,100%);fill-opacity:1;" d="M 100 96 L 100 117 L 120 105.453125 L 120 84.453125 L 100 96 "/>
<path style=" stroke:none;fill-rule:nonzero;fill:rgb(0%,0%,0%);fill-opacity:1;" d="M 100 116 L 100 137 L 120 125.453125 L 120 104.453125 L 100 116 "/>
<path style=" stroke:none;fill-rule:nonzero;fill:rgb(100%,100%,100%);fill-opacity:1;" d="M 100 136 L 100 157 L 120 145.453125 L 120 124.453125 L 100 136 "/>
<path style=" stroke:none;fill-rule:nonzero;fill:rgb(0%,0%,0%);fill-opacity:1;" d="M 100 156 L 100 177 L 120 165.453125 L 120 144.453125 L 100 156 "/>
<path style=" stroke:none;fill-rule:nonzero;fill:rgb(100%,100%,100%);fill-opacity:1;" d="M 100 176 L 100 197 L 120 185.453125 L 120 164.453125 L 100 176 "/>
<path style=" stroke:none;fill-rule:nonzero;fill:rgb(0%,0%,0%);fill-opacity:1;" d="M 100 196 L 100 217 L 120 205.453125 L 120 184.453125 L 100 196 "/>
<path style=" stroke:none;fill-rule:nonzero;fill:rgb(100%,100%,100%);fill-opacity:1;" d="M 100 216 L 100 237 L 120 225.453125 L 120 204.453125 L 100 216 "/>
<path style=" stroke:none;fill-rule:nonzero;fill:rgb(0%,0%,0%);fill-opacity:1;" d="M 100 236 L 100 257 L 120 245.453125 L 120 224.453125 L 100 236 "/>
<path style=" stroke:none;fill-rule:nonzero;fill:rgb(100%,100%,100%);fill-opacity:1;" d="M 100 256 L 100 277 L 120 265.453125 L 120 244.453125 L 100 256 "/>
<path style=" stroke:none;fill-rule:nonzero;fill:rgb(0%,0%,0%);fill-opacity:1;" d="M 100 276 L 100 297 L 120 285.453125 L 120 264.453125 L 100 276 "/>
<path style=" stroke:none;fill-rule:nonzero;fill:rgb(100%,100%,100%);fill-opacity:1;" d="M 100 296 L 100 317 L 120 305.453125 L 120 284.453125 L 100 296 "/>
<path style=" stroke:none;fill-rule:nonzero;fill:rgb(0%,0%,0%);fill-opacity:1;" d="M 100 316 L 100 337 L 120 325.453125 L 120 304.453125 L 100 316 "/>
<path style=" stroke:none;fill-rule:nonzero;fill:rgb(100%,100%,100%);fill-opacity:1;" d="M 100 336 L 100 357 L 120 345.453125 L 120 324.453125 L 100 336 "/>
<path style=" stroke:none;fill-rule:nonzero;fill:rgb(0%,0%,0%);fill-opacity:1;" d="M 100 356 L 100 377 L 120 365.453125 L 120 344.453125 L 100 356 "/>
<path style=" stroke:none;fill-rule:nonzero;fill:rgb(100%,100%,100%);fill-opacity:1;" d="M 100 376 L 100 397 L 120 385.453125 L 120 364.453125 L 100 376 "/>
<path style=" stroke:none;fill-rule:nonzero;fill:rgb(0%,0%,0%);fill-opacity:1;" d="M 100 396 L 100 417 L 120 405.453125 L 120 384.453125 L 100 396 "/>
<path style=" stroke:none;fill-rule:nonzero;fill:rgb(100%,100%,100%);fill-opacity:1;" d="M 120 -16 L 120 5 L 140 -6.546875 L 140 -27.546875 L 120 -16 "/>
<path style=" stroke:none;fill-rule:nonzero;fill:rgb(0%,0%,0%);fill-opacity:1;" d="M 120 4 L 120 25 L 140 13.453125 L 140 -7.546875 L 120 4 "/>
<path style=" stroke:none;fill-rule:nonzero;fill:rgb(100%,100%,100%);fill-opacity:1;" d="M 120 24 L 120 45 L 140 33.453125 L 140 12.453125 L 120 24 "/>
<path style=" stroke:none;fill-rule:nonzero;fill:rgb(0%,0%,0%);fill-opacity:1;" d="M 120 44 L 120 65 L 140 53.453125 L 140 32.453125 L 120 44 "/>
<path style=" stroke:none;fill-rule:nonzero;fill:rgb(100%,100%,100%);fill-opacity:1;" d="M 120 64 L 120 85 L 140 73.453125 L 140 52.453125 L 120 64 "/>
<path style=" stroke:none;fill-rule:nonzero;fill:rgb(0%,0%,0%);fill-opacity:1;" d="M 120 84 L 120 105 L 140 93.453125 L 140 72.453125 L 120 84 "/>
<path style=" stroke:none;fill-rule:nonzero;fill:rgb(100%,100%,100%);fill-opacity:1;" d="M 120 104 L 120 125 L 140 113.453125 L 140 92.453125 L 120 104 "/>
<path style=" stroke:none;fill-rule:nonzero;fill:rgb(0%,0%,0%);fill-opacity:1;" d="M 120 124 L 120 145 L 140 133.453125 L 140 112.453125 L 120 124 "/>
<path style=" stroke:none;fill-rule:nonzero;fill:rgb(100%,100%,100%);fill-opacity:1;" d="M 120 144 L 120 165 L 140 153.453125 L 140 132.453125 L 120 144 "/>
<path style=" stroke:none;fill-rule:nonzero;fill:rgb(0%,0%,0%);fill-opacity:1;" d="M 120 164 L 120 185 L 140 173.453125 L 140 152.453125 L 120 164 "/>
<path style=" stroke:none;fill-rule:nonzero;fill:rgb(100%,100%,100%);fill-opacity:1;" d="M 120 184 L 120 205 L 140 193.453125 L 140 172.453125 L 120 184 "/>
<path style=" stroke:none;fill-rule:nonzero;fill:rgb(0%,0%,0%);fill-opacity:1;" d="M 120 204 L 120 225 L 140 213.453125 L 140 192.453125 L 120 204 "/>
<path style=" stroke:none;fill-rule:nonzero;fill:rgb(100%,100%,100%);fill-opacity:1;" d="M 120 224 L 120 245 L 140 233.453125 L 140 212.453125 L 120 224 "/>
<path style=" stroke:none;fill-rule:nonzero;fill:rgb(0%,0%,0%);fill-opacity:1;" d="M 120 244 L 120 265 L 140 253.453125 L 140 232.453125 L 120 244 "/>
<path style=" stroke:none;fill-rule:nonzero;fill:rgb(100%,100%,100%);fill-opacity:1;" d="M 120 264 L 120 285 L 140 273.453125 L 140 252.453125 L 120 264 "/>
<path style=" stroke:none;fill-rule:nonzero;fill:rgb(0%,0%,0%);fill-opacity:1;" d="M 120 284 L 120 305 L 140 293.453125 L 140 272.453125 L 120 284 "/>
<path style=" stroke:none;fill-rule:nonzero;fill:rgb(100%,100%,100%);fill-opacity:1;" d="M 120 304 L 120 325 L 140 313.453125 L 140 292.453125 L 120 304 "/>
<path style=" stroke:none;fill-rule:nonzero;fill:rgb(0%,0%,0%);fill-opacity:1;" d="M 120 324 L 120 345 L 140 333.453125 L 140 312.453125 L 120 324 "/>
<path style=" stroke:none;fill-rule:nonzero;fill:rgb(100%,100%,100%);fill-opacity:1;" d="M 120 344 L 120 365 L 140 353.453125 L 140 332.453125 L 120 344 "/>
<path style=" stroke:none;fill-rule:nonzero;fill:rgb(0%,0%,0%);fill-opacity:1;" d="M 120 364 L 120 385 L 140 373.453125 L 140 352.453125 L 120 364 "/>
<path style=" stroke:none;fill-rule:nonzero;fill:rgb(100%,100%,100%);fill-opacity:1;" d="M 120 384 L 120 405 L 140 393.453125 L 140 372.453125 L 120 384 "/>
<path style=" stroke:none;fill-rule:nonzero;fill:rgb(0%,0%,0%);fill-opacity:1;" d="M 120 404 L 120 425 L 140 413.453125 L 140 392.453125 L 120 404 "/>
<path style=" stroke:none;fill-rule:nonzero;fill:rgb(100%,100%,100%);fill-opacity:1;" d="M 140 -8 L 140 13 L 160 1.453125 L 160 -19.546875 L 140 -8 "/>
<path style=" stroke:none;fill-rule:nonzero;fill:rgb(0%,0%,0%);fill-opacity:1;" d="M 140 12 L 140 33 L 160 21.453125 L 160 0.453125 L 140 12 "/>
<path style=" stroke:none;fill-rule:nonzero;fill:rgb(100%,100%,100%);fill-opacity:1;" d="M 140 32 L 140 53 L 160 41.453125 L 160 20.453125 L 140 32 "/>
<path style=" stroke:none;fill-rule:nonzero;fill:rgb(0%,0%,0%);fill-opacity:1;" d="M 140 52 L 140 73 L 160 61.453125 L 160 40.453125 L 140 52 "/>
<path style=" stroke:none;fill-rule:nonzero;fill:rgb(100%,100%,100%);fill-opacity:1;" d="M 140 72 L 140 93 L 160 81.453125 L 160 60.453125 L 140 72 "/>
<path style=" stroke:none;fill-rule:nonzero;fill:rgb(0%,0%,0%);fill-opacity:1;" d="M 140 92 L 140 113 L 160 101.453125 L 160 80.453125 L 140 92 "/>
<path style=" stroke:none;fill-rule:nonzero;fill:rgb(100%,100%,100%);fill-opacity:1;" d="M 140 112 L 140 133 L 160 121.453125 L 160 100.453125 L 140 112 "/>
<path style=" stroke:none;fill-rule:nonzero;fill:rgb(0%,0%,0%);fill-opacity:1;" d="M 140 132 L 140 153 L 160 141.453125 L 160 120.453125 L 140 132 "/>
<path style=" stroke:none;fill-rule:nonzero;fill:rgb(100%,100%,100%);fill-opacity:1;" d="M 140 152 L 140 173 L 160 161.453125 L 160 140.453125 L 140 152 "/>
<path style=" stroke:none;fill-rule:nonzero;fill:rgb(0%,0%,0%);fill-opacity:1;" d="M 140 172 L 140 193 L 160 181.453125 L 160 160.453125 L 140 172 "/>
<path style=" stroke:none;fill-rule:nonzero;fill:rgb(100%,100%,100%);fill-opacity:1;" d="M 140 192 L 140 213 L 160 201.453125 L 160 180.453125 L 140 192 "/>
<path style=" stroke:none;fill-rule:nonzero;fill:rgb(0%,0%,0%);fill-opacity:1;" d="M 140 212 L 140 233 L 160 221.453125 L 160 200.453125 L 140 212 "/>
<path style=" stroke:none;fill-rule:nonzero;fill:rgb(100%,100%,100%);fill-opacity:1;" d="M 140 232 L 140 253 L 160 241.453125 L 160 220.453125 L 140 232 "/>
<path style=" stroke:none;fill-rule:nonzero;fill:rgb(0%,0%,0%);fill-opacity:1;" d="M 140 252 L 140 273 L 160 261.453125 L 160 240.453125 L 140 252 "/>
<path style=" stroke:none;fill-rule:nonzero;fill:rgb(100%,100%,100%);fill-opacity:1;" d="M 140 272 L 140 293 L 160 281.453125 L 160 260.453125 L 140 272 "/>
<path style=" stroke:none;fill-rule:nonzero;fill:rgb(0%,0%,0%);fill-opacity:1;" d="M 140 292 L 140 313 L 160 301.453125 L 160 280.453125 L 140 292 "/>
<path style=" stroke:none;fill-rule:nonzero;fill:rgb(100%,100%,100%);fill-opacity:1;" d="M 140 312 L 140 333 L 160 321.453125 L 160 300.453125 L 140 312 "/>
<path style=" stroke:none;fill-rule:nonzero;fill:rgb(0%,0%,0%);fill-opacity:1;" d="M 140 332 L 140 353 L 160 341.453125 L 160 320.453125 L 140 332 "/>
<path style=" stroke:none;fill-rule:nonzero;fill:rgb(100%,100%,100%);fill-opacity:1;" d="M 140 352 L 140 373 L 160 361.453125 L 160 340.453125 L 140 352 "/>
<path style=" stroke:none;fill-rule:nonzero;fill:rgb(0%,0%,0%);fill-opacity:1;" d="M 140 372 L 140 393 L 160 381.453125 L 160 360.453125 L 140 372 "/>
<path style=" stroke:none;fill-rule:nonzero;fill:rgb(100%,100%,100%);fill-opacity:1;" d="M 140 392 L 140 413 L 160 401.453125 L 160 380.453125 L 140 392 "/>
<path style=" stroke:none;fill-rule:nonzero;fill:rgb(0%,0%,0%);fill-opacity:1;" d="M 160 -19 L 160 2 L 180 -9.546875 L 180 -30.546875 L 160 -19 "/>
<path style=" stroke:none;fill-rule:nonzero;fill:rgb(100%,100%,100%);fill-opacity:1;" d="M 160 1 L 160 22 L 180 10.453125 L 180 -10.546875 L 160 1 "/>
<path style=" stroke:none;fill-rule:nonzero;fill:rgb(0%,0%,0%);fill-opacity:1;" d="M 160 21 L 160 42 L 180 30.453125 L 180 9.453125 L 160 21 "/>
<path style=" stroke:none;fill-rule:nonzero;fill:rgb(100%,100%,100%);fill-opacity:1;" d="M 160 41 L 160 62 L 180 50.453125 L 180 29.453125 L 160 41 "/>
<path style=" stroke:none;fill-rule:nonzero;fill:rgb(0%,0%,0%);fill-opacity:1;" d="M 160 61 L 160 82 L 180 70.453125 L 180 49.453125 L 160 61 "/>
<path style=" stroke:none;fill-rule:nonzero;fill:rgb(100%,100%,100%);fill-opacity:1;" d="M 160 81 L 160 102 L 180 90.453125 L 180 69.453125 L 160 81 "/>
<path style=" stroke:none;fill-rule:nonzero;fill:rgb(0%,0%,0%);fill-opacity:1;" d="M 160 101 L 160 122 L 180 110.453125 L 180 89.453125 L 160 101 "/>
<path style=" stroke:none;fill-rule:nonzero;fill:rgb(100%,100%,100%);fill-opacity:1;" d="M 160 121 L 160 142 L 180 130.453125 L 180 109.453125 L 160 121 "/>
<path style=" stroke:none;fill-rule:nonzero;fill:rgb(0%,0%,0%);fill-opacity:1;" d="M 160 141 L 160 162 L 180 150.453125 L 180 129.453125 L 160 141 "/>
<path style=" stroke:none;fill-rule:nonzero;fill:rgb(100%,100%,100%);fill-opacity:1;" d="M 160 161 L 160 182 L 180 170.453125 L 180 149.453125 L 160 161 "/>
<path style=" stroke:none;fill-rule:nonzero;fill:rgb(0%,0%,0%);fill-opacity:1;" d="M 160 181 L 160 202 L 180 190.453125 L 180 169.453125 L 160 181 "/>
<path style=" stroke:none;fill-rule:nonzero;fill:rgb(100%,100%,100%);fill-opacity:1;" d="M 160 201 L 160 222 L 180 210.453125 L 180 189.453125 L 160 201 "/>
<path style=" stroke:none;fill-rule:nonzero;fill:rgb(0%,0%,0%);fill-opacity:1;" d="M 160 221 L 160 242 L 180 230.453125 L 180 209.453125 L 160 221 "/>
<path style=" stroke:none;fill-rule:nonzero;fill:rgb(100%,100%,100%);fill-opacity:1;" d="M 160 241 L 160 262 L 180 250.453125 L 180 229.453125 L 160 241 "/>
<path style=" stroke:none;fill-rule:nonzero;fill:rgb(0%,0%,0%);fill-opacity:1;" d="M 160 261 L 160 282 L 180 270.453125 L 180 249.453125 L 160 261 "/>
<path style=" stroke:none;fill-rule:nonzero;fill:rgb(100%,100%,100%);fill-opacity:1;" d="M 160 281 L 160 302 L 180 290.453125 L 180 269.453125 L 160 281 "/>
<path style=" stroke:none;fill-rule:nonzero;fill:rgb(0%,0%,0%);fill-opacity:1;" d="M 160 301 L 160 322 L 180 310.453125 L 180 289.453125 L 160 301 "/>
<path style=" stroke:none;fill-rule:nonzero;fill:rgb(100%,100%,100%);fill-opacity:1;" d="M 160 321 L 160 342 L 180 330.453125 L 180 309.453125 L 160 321 "/>
<path style=" stroke:none;fill-rule:nonzero;fill:rgb(0%,0%,0%);fill-opacity:1;" d="M 160 341 L 160 362 L 180 350.453125 L 180 329.453125 L 160 341 "/>
<path style=" stroke:none;fill-rule:nonzero;fill:rgb(100%,100%,100%);fill-opacity:1;" d="M 160 361 L 160 382 L 180 370.453125 L 180 349.453125 L 160 361 "/>
<path style=" stroke:none;fill-rule:nonzero;fill:rgb(0%,0%,0%);fill-opacity:1;" d="M 160 381 L 160 402 L 180 390.453125 L 180 369.453125 L 160 381 "/>
<path style=" stroke:none;fill-rule:nonzero;fill:rgb(100%,100%,100%);fill-opacity:1;" d="M 160 401 L 160 422 L 180 410.453125 L 180 389.453125 L 160 401 "/>
<path style=" stroke:none;fill-rule:nonzero;fill:rgb(0%,0%,0%);fill-opacity:1;" d="M 180 -11 L 180 10 L 200 -1.546875 L 200 -22.546875 L 180 -11 "/>
<path style=" stroke:none;fill-rule:nonzero;fill:rgb(100%,100%,100%);fill-opacity:1;" d="M 180 9 L 180 30 L 200 18.453125 L 200 -2.546875 L 180 9 "/>
<path style=" stroke:none;fill-rule:nonzero;fill:rgb(0%,0%,0%);fill-opacity:1;" d="M 180 29 L 180 50 L 200 38.453125 L 200 17.453125 L 180 29 "/>
<path style=" stroke:none;fill-rule:nonzero;fill:rgb(100%,100%,100%);fill-opacity:1;" d="M 180 49 L 180 70 L 200 58.453125 L 200 37.453125 L 180 49 "/>
<path style=" stroke:none;fill-rule:nonzero;fill:rgb(0%,0%,0%);fill-opacity:1;" d="M 180 69 L 180 90 L 200 78.453125 L 200 57.453125 L 180 69 "/>
<path style=" stroke:none;fill-rule:nonzero;fill:rgb(100%,100%,100%);fill-opacity:1;" d="M 180 89 L 180 110 L 200 98.453125 L 200 77.453125 L 180 89 "/>
<path style=" stroke:none;fill-rule:nonzero;fill:rgb(0%,0%,0%);fill-opacity:1;" d="M 180 109 L 180 130 L 200 118.453125 L 200 97.453125 L 180 109 "/>
<path style=" stroke:none;fill-rule:nonzero;fill:rgb(100%,100%,100%);fill-opacity:1;" d="M 180 129 L 180 150 L 200 138.453125 L 200 117.453125 L 180 129 "/>
<path style=" stroke:none;fill-rule:nonzero;fill:rgb(0%,0%,0%);fill-opacity:1;" d="M 180 149 L 180 170 L 200 158.453125 L 200 137.453125 L 180 149 "/>
<path style=" stroke:none;fill-rule:nonzero;fill:rgb(100%,100%,100%);fill-opacity:1;" d="M 180 169 L 180 190 L 200 178.453125 L 200 157.453125 L 180 169 "/>
<path style=" stroke:none;fill-rule:nonzero;fill:rgb(0%,0%,0%);fill-opacity:1;" d="M 180 189 L 180 210 L 200 198.453125 L 200 177.453125 L 180 189 "/>
<path style=" stroke:none;fill-rule:nonzero;fill:rgb(100%,100%,100%);fill-opacity:1;" d="M 180 209 L 180 230 L 200 218.453125 L 200 197.453125 L 180 209 "/>
<path style=" stroke:none;fill-rule:nonzero;fill:rgb(0%,0%,0%);fill-opacity:1;" d="M 180 229 L 180 250 L 200 238.453125 L 200 217.453125 L 180 229 "/>
<path style=" stroke:none;fill-rule:nonzero;fill:rgb(100%,100%,100%);fill-opacity:1;" d="M 180 249 L 180 270 L 200 258.453125 L 200 237.453125 L 180 249 "/>
<path style=" stroke:none;fill-rule:nonzero;fill:rgb(0%,0%,0%);fill-opacity:1;" d="M 180 269 L 180 290 L 200 278.453125 L 200 257.453125 L 180 269 "/>
<path style=" stroke:none;fill-rule:nonzero;fill:rgb(100%,100%,100%);fill-opacity:1;" d="M 180 289 L 180 310 L 200 298.453125 L 200 277.453125 L 180 289 "/>
<path style=" stroke:none;fill-rule:nonzero;fill:rgb(0%,0%,0%);fill-opacity:1;" d="M 180 309 L 180 330 L 200 318.453125 L 200 297.453125 L 180 309 "/>
<path style=" stroke:none;fill-rule:nonzero;fill:rgb(100%,100%,100%);fill-opacity:1;" d="M 180 329 L 180 350 L 200 338.453125 L 200 317.453125 L 180 329 "/>
<path style=" stroke:none;fill-rule:nonzero;fill:rgb(0%,0%,0%);fill-opacity:1;" d="M 180 349 L 180 370 L 200 358.453125 L 200 337.453125 L 180 349 "/>
<path style=" stroke:none;fill-rule:nonzero;fill:rgb(100%,100%,100%);fill-opacity:1;" d="M 180 369 L 180 390 L 200 378.453125 L 200 357.453125 L 180 369 "/>
<path style=" stroke:none;fill-rule:nonzero;fill:rgb(0%,0%,0%);fill-opacity:1;" d="M 180 389 L 180 410 L 200 398.453125 L 200 377.453125 L 180 389 "/>
<path style=" stroke:none;fill-rule:nonzero;fill:rgb(100%,100%,100%);fill-opacity:1;" d="M 180 409 L 180 430 L 200 418.453125 L 200 397.453125 L 180 409 "/>
<path style=" stroke:none;fill-rule:nonzero;fill:rgb(0%,0%,0%);fill-opacity:1;" d="M 200 -2 L 200 19 L 220 7.453125 L 220 -13.546875 L 200 -2 "/>
<path style=" stroke:none;fill-rule:nonzero;fill:rgb(100%,100%,100%);fill-opacity:1;" d="M 200 18 L 200 39 L 220 27.453125 L 220 6.453125 L 200 18 "/>
<path style=" stroke:none;fill-rule:nonzero;fill:rgb(0%,0%,0%);fill-opacity:1;" d="M 200 38 L 200 59 L 220 47.453125 L 220 26.453125 L 200 38 "/>
<path style=" stroke:none;fill-rule:nonzero;fill:rgb(100%,100%,100%);fill-opacity:1;" d="M 200 58 L 200 79 L 220 67.453125 L 220 46.453125 L 200 58 "/>
<path style=" stroke:none;fill-rule:nonzero;fill:rgb(0%,0%,0%);fill-opacity:1;" d="M 200 78 L 200 99 L 220 87.453125 L 220 66.453125 L 200 78 "/>
<path style=" stroke:none;fill-rule:nonzero;fill:rgb(100%,100%,100%);fill-opacity:1;" d="M 200 98 L 200 119 L 220 107.453125 L 220 86.453125 L 200 98 "/>
<path style=" stroke:none;fill-rule:nonzero;fill:rgb(0%,0%,0%);fill-opacity:1;" d="M 200 118 L 200 139 L 220 127.453125 L 220 106.453125 L 200 118 "/>
<path style=" stroke:none;fill-rule:nonzero;fill:rgb(100%,100%,100%);fill-opacity:1;" d="M 200 138 L 200 159 L 220 147.453125 L 220 126.453125 L 200 138 "/>
<path style=" stroke:none;fill-rule:nonzero;fill:rgb(0%,0%,0%);fill-opacity:1;" d="M 200 158 L 200 179 L 220 167.453125 L 220 146.453125 L 200 158 "/>
<path style=" stroke:none;fill-rule:nonzero;fill:rgb(100%,100%,100%);fill-opacity:1;" d="M 200 178 L 200 199 L 220 187.453125 L 220 166.453125 L 200 178 "/>
<path style=" stroke:none;fill-rule:nonzero;fill:rgb(0%,0%,0%);fill-opacity:1;" d="M 200 198 L 200 219 L 220 207.453125 L 220 186.453125 L 200 198 "/>
<path style=" stroke:none;fill-rule:nonzero;fill:rgb(100%,100%,100%);fill-opacity:1;" d="M 200 218 L 200 239 L 220 227.453125 L 220 206.453125 L 200 218 "/>
<path style=" stroke:none;fill-rule:nonzero;fill:rgb(0%,0%,0%);fill-opacity:1;" d="M 200 238 L 200 259 L 220 247.453125 L 220 226.453125 L 200 238 "/>
<path style=" stroke:none;fill-rule:nonzero;fill:rgb(100%,100%,100%);fill-opacity:1;" d="M 200 258 L 200 279 L 220 267.453125 L 220 246.453125 L 200 258 "/>
<path style=" stroke:none;fill-rule:nonzero;fill:rgb(0%,0%,0%);fill-opacity:1;" d="M 200 278 L 200 299 L 220 287.453125 L 220 266.453125 L 200 278 "/>
<path style=" stroke:none;fill-rule:nonzero;fill:rgb(100%,100%,100%);fill-opacity:1;" d="M 200 298 L 200 319 L 220 307.453125 L 220 286.453125 L 200 298 "/>
<path style=" stroke:none;fill-rule:nonzero;fill:rgb(0%,0%,0%);fill-opacity:1;" d="M 200 318 L 200 339 L 220 327.453125 L 220 306.453125 L 200 318 "/>
<path style=" stroke:none;fill-rule:nonzero;fill:rgb(100%,100%,100%);fill-opacity:1;" d="M 200 338 L 200 359 L 220 347.453125 L 220 326.453125 L 200 338 "/>
<path style=" stroke:none;fill-rule:nonzero;fill:rgb(0%,0%,0%);fill-opacity:1;" d="M 200 358 L 200 379 L 220 367.453125 L 220 346.453125 L 200 358 "/>
<path style=" stroke:none;fill-rule:nonzero;fill:rgb(100%,100%,100%);fill-opacity:1;" d="M 200 378 L 200 399 L 220 387.453125 L 220 366.453125 L 200 378 "/>
<path style=" stroke:none;fill-rule:nonzero;fill:rgb(0%,0%,0%);fill-opacity:1;" d="M 200 398 L 200 419 L 220 407.453125 L 220 386.453125 L 200 398 "/>
<path style=" stroke:none;fill-rule:nonzero;fill:rgb(100%,100%,100%);fill-opacity:1;" d="M 220 -14 L 220 7 L 240 -4.546875 L 240 -25.546875 L 220 -14 "/>
<path style=" stroke:none;fill-rule:nonzero;fill:rgb(0%,0%,0%);fill-opacity:1;" d="M 220 6 L 220 27 L 240 15.453125 L 240 -5.546875 L 220 6 "/>
<path style=" stroke:none;fill-rule:nonzero;fill:rgb(100%,100%,100%);fill-opacity:1;" d="M 220 26 L 220 47 L 240 35.453125 L 240 14.453125 L 220 26 "/>
<path style=" stroke:none;fill-rule:nonzero;fill:rgb(0%,0%,0%);fill-opacity:1;" d="M 220 46 L 220 67 L 240 55.453125 L 240 34.453125 L 220 46 "/>
<path style=" stroke:none;fill-rule:nonzero;fill:rgb(100%,100%,100%);fill-opacity:1;" d="M 220 66 L 220 87 L 240 75.453125 L 240 54.453125 L 220 66 "/>
<path style=" stroke:none;fill-rule:nonzero;fill:rgb(0%,0%,0%);fill-opacity:1;" d="M 220 86 L 220 107 L 240 95.453125 L 240 74.453125 L 220 86 "/>
<path style=" stroke:none;fill-rule:nonzero;fill:rgb(100%,100%,100%);fill-opacity:1;" d="M 220 106 L 220 127 L 240 115.453125 L 240 94.453125 L 220 106 "/>
<path style=" stroke:none;fill-rule:nonzero;fill:rgb(0%,0%,0%);fill-opacity:1;" d="M 220 126 L 220 147 L 240 135.453125 L 240 114.453125 L 220 126 "/>
<path style=" stroke:none;fill-rule:nonzero;fill:rgb(100%,100%,100%);fill-opacity:1;" d="M 220 146 L 220 167 L 240 155.453125 L 240 134.453125 L 220 146 "/>
<path style=" stroke:none;fill-rule:nonzero;fill:rgb(0%,0%,0%);fill-opacity:1;" d="M 220 166 L 220 187 L 240 175.453125 L 240 154.453125 L 220 166 "/>
<path style=" stroke:none;fill-rule:nonzero;fill:rgb(100%,100%,100%);fill-opacity:1;" d="M 220 186 L 220 207 L 240 195.453125 L 240 174.453125 L 220 186 "/>
<path style=" stroke:none;fill-rule:nonzero;fill:rgb(0%,0%,0%);fill-opacity:1;" d="M 220 206 L 220 227 L 240 215.453125 L 240 194.453125 L 220 206 "/>
<path style=" stroke:none;fill-rule:nonzero;fill:rgb(100%,100%,100%);fill-opacity:1;" d="M 220 226 L 220 247 L 240 235.453125 L 240 214.453125 L 220 226 "/>
<path style=" stroke:none;fill-rule:nonzero;fill:rgb(0%,0%,0%);fill-opacity:1;" d="M 220 246 L 220 267 L 240 255.453125 L 240 234.453125 L 220 246 "/>
<path style=" stroke:none;fill-rule:nonzero;fill:rgb(100%,100%,100%);fill-opacity:1;" d="M 220 266 L 220 287 L 240 275.453125 L 240 254.453125 L 220 266 "/>
<path style=" stroke:none;fill-rule:nonzero;fill:rgb(0%,0%,0%);fill-opacity:1;" d="M 220 286 L 220 307 L 240 295.453125 L 240 274.453125 L 220 286 "/>
<path style=" stroke:none;fill-rule:nonzero;fill:rgb(100%,100%,100%);fill-opacity:1;" d="M 220 306 L 220 327 L 240 315.453125 L 240 294.453125 L 220 306 "/>
<path style=" stroke:none;fill-rule:nonzero;fill:rgb(0%,0%,0%);fill-opacity:1;" d="M 220 326 L 220 347 L 240 335.453125 L 240 314.453125 L 220 326 "/>
<path style=" stroke:none;fill-rule:nonzero;fill:rgb(100%,100%,100%);fill-opacity:1;" d="M 220 346 L 220 367 L 240 355.453125 L 240 334.453125 L 220 346 "/>
<path style=" stroke:none;fill-rule:nonzero;fill:rgb(0%,0%,0%);fill-opacity:1;" d="M 220 366 L 220 387 L 240 375.453125 L 240 354.453125 L 220 366 "/>
<path style=" stroke:none;fill-rule:nonzero;fill:rgb(100%,100%,100%);fill-opacity:1;" d="M 220 386 L 220 407 L 240 395.453125 L 240 374.453125 L 220 386 "/>
<path style=" stroke:none;fill-rule:nonzero;fill:rgb(0%,0%,0%);fill-opacity:1;" d="M 220 406 L 220 427 L 240 415.453125 L 240 394.453125 L 220 406 "/>
<path style=" stroke:none;fill-rule:nonzero;fill:rgb(100%,100%,100%);fill-opacity:1;" d="M 240 -5 L 240 16 L 260 4.453125 L 260 -16.546875 L 240 -5 "/>
<path style=" stroke:none;fill-rule:nonzero;fill:rgb(0%,0%,0%);fill-opacity:1;" d="M 240 15 L 240 36 L 260 24.453125 L 260 3.453125 L 240 15 "/>
<path style=" stroke:none;fill-rule:nonzero;fill:rgb(100%,100%,100%);fill-opacity:1;" d="M 240 35 L 240 56 L 260 44.453125 L 260 23.453125 L 240 35 "/>
<path style=" stroke:none;fill-rule:nonzero;fill:rgb(0%,0%,0%);fill-opacity:1;" d="M 240 55 L 240 76 L 260 64.453125 L 260 43.453125 L 240 55 "/>
<path style=" stroke:none;fill-rule:nonzero;fill:rgb(100%,100%,100%);fill-opacity:1;" d="M 240 75 L 240 96 L 260 84.453125 L 260 63.453125 L 240 75 "/>
<path style=" stroke:none;fill-rule:nonzero;fill:rgb(0%,0%,0%);fill-opacity:1;" d="M 240 95 L 240 116 L 260 104.453125 L 260 83.453125 L 240 95 "/>
<path style=" stroke:none;fill-rule:nonzero;fill:rgb(100%,100%,100%);fill-opacity:1;" d="M 240 115 L 240 136 L 260 124.453125 L 260 103.453125 L 240 115 "/>
<path style=" stroke:none;fill-rule:nonzero;fill:rgb(0%,0%,0%);fill-opacity:1;" d="M 240 135 L 240 156 L 260 144.453125 L 260 123.453125 L 240 135 "/>
<path style=" stroke:none;fill-rule:nonzero;fill:rgb(100%,100%,100%);fill-opacity:1;" d="M 240 155 L 240 176 L 260 164.453125 L 260 143.453125 L 240 155 "/>
<path style=" stroke:none;fill-rule:nonzero;fill:rgb(0%,0%,0%);fill-opacity:1;" d="M 240 175 L 240 196 L 260 184.453125 L 260 163.453125 L 240 175 "/>
<path style=" stroke:none;fill-rule:nonzero;fill:rgb(100%,100%,100%);fill-opacity:1;" d="M 240 195 L 240 216 L 260 204.453125 L 260 183.453125 L 240 195 "/>
<path style=" stroke:none;fill-rule:nonzero;fill:rgb(0%,0%,0%);fill-opacity:1;" d="M 240 215 L 240 236 L 260 224.453125 L 260 203.453125 L 240 215 "/>
<path style=" stroke:none;fill-rule:nonzero;fill:rgb(100%,100%,100%);fill-opacity:1;" d="M 240 235 L 240 256 L 260 244.453125 L 260 223.453125 L 240 235 "/>
<path style=" stroke:none;fill-rule:nonzero;fill:rgb(0%,0%,0%);fill-opacity:1;" d="M 240 255 L 240 276 L 260 264.453125 L 260 243.453125 L 240 255 "/>
<path style=" stroke:none;fill-rule:nonzero;fill:rgb(100%,100%,100%);fill-opacity:1;" d="M 240 275 L 240 296 L 260 284.453125 L 260 263.453125 L 240 275 "/>
<path style=" stroke:none;fill-rule:nonzero;fill:rgb(0%,0%,0%);fill-opacity:1;" d="M 240 295 L 240 316 L 260 304.453125 L 260 283.453125 L 240 295 "/>
<path style=" stroke:none;fill-rule:nonzero;fill:rgb(100%,100%,100%);fill-opacity:1;" d="M 240 315 L 240 336 L 260 324.453125 L 260 303.453125 L 240 315 "/>
<path style=" stroke:none;fill-rule:nonzero;fill:rgb(0%,0%,0%);fill-opacity:1;" d="M 240 335 L 240 356 L 260 344.453125 L 260 323.453125 L 240 335 "/>
<path style=" stroke:none;fill-rule:nonzero;fill:rgb(100%,100%,100%);fill-opacity:1;" d="M 240 355 L 240 376 L 260 364.453125 L 260 343.453125 L 240 355 "/>
<path style=" stroke:none;fill-rule:nonzero;fill:rgb(0%,0%,0%);fill-opacity:1;" d="M 240 375 L 240 396 L 260 384.453125 L 260 363.453125 L 240 375 "/>
<path style=" stroke:none;fill-rule:nonzero;fill:rgb(100%,100%,100%);fill-opacity:1;" d="M 240 395 L 240 416 L 260 404.453125 L 260 383.453125 L 240 395 "/>
<path style=" stroke:none;fill-rule:nonzero;fill:rgb(0%,0%,0%);fill-opacity:1;" d="M 260 -17 L 260 4 L 280 -7.546875 L 280 -28.546875 L 260 -17 "/>
<path style=" stroke:none;fill-rule:nonzero;fill:rgb(100%,100%,100%);fill-opacity:1;" d="M 260 3 L 260 24 L 280 12.453125 L 280 -8.546875 L 260 3 "/>
<path style=" stroke:none;fill-rule:nonzero;fill:rgb(0%,0%,0%);fill-opacity:1;" d="M 260 23 L 260 44 L 280 32.453125 L 280 11.453125 L 260 23 "/>
<path style=" stroke:none;fill-rule:nonzero;fill:rgb(100%,100%,100%);fill-opacity:1;" d="M 260 43 L 260 64 L 280 52.453125 L 280 31.453125 L 260 43 "/>
<path style=" stroke:none;fill-rule:nonzero;fill:rgb(0%,0%,0%);fill-opacity:1;" d="M 260 63 L 260 84 L 280 72.453125 L 280 51.453125 L 260 63 "/>
<path style=" stroke:none;fill-rule:nonzero;fill:rgb(100%,100%,100%);fill-opacity:1;" d="M 260 83 L 260 104 L 280 92.453125 L 280 71.453125 L 260 83 "/>
<path style=" stroke:none;fill-rule:nonzero;fill:rgb(0%,0%,0%);fill-opacity:1;" d="M 260 103 L 260 124 L 280 112.453125 L 280 91.453125 L 260 103 "/>
<path style=" stroke:none;fill-rule:nonzero;fill:rgb(100%,100%,100%);fill-opacity:1;" d="M 260 123 L 260 144 L 280 132.453125 L 280 111.453125 L 260 123 "/>
<path style=" stroke:none;fill-rule:nonzero;fill:rgb(0%,0%,0%);fill-opacity:1;" d="M 260 143 L 260 164 L 280 152.453125 L 280 131.453125 L 260 143 "/>
<path style=" stroke:none;fill-rule:nonzero;fill:rgb(100%,100%,100%);fill-opacity:1;" d="M 260 163 L 260 184 L 280 172.453125 L 280 151.453125 L 260 163 "/>
<path style=" stroke:none;fill-rule:nonzero;fill:rgb(0%,0%,0%);fill-opacity:1;" d="M 260 183 L 260 204 L 280 192.453125 L 280 171.453125 L 260 183 "/>
<path style=" stroke:none;fill-rule:nonzero;fill:rgb(100%,100%,100%);fill-opacity:1;" d="M 260 203 L 260 224 L 280 212.453125 L 280 191.453125 L 260 203 "/>
<path style=" stroke:none;fill-rule:nonzero;fill:rgb(0%,0%,0%);fill-opacity:1;" d="M 260 223 L 260 244 L 280 232.453125 L 280 211.453125 L 260 223 "/>
<path style=" stroke:none;fill-rule:nonzero;fill:rgb(100%,100%,100%);fill-opacity:1;" d="M 260 243 L 260 264 L 280 252.453125 L 280 231.453125 L 260 243 "/>
<path style=" stroke:none;fill-rule:nonzero;fill:rgb(0%,0%,0%);fill-opacity:1;" d="M 260 263 L 260 284 L 280 272.453125 L 280 251.453125 L 260 263 "/>
<path style=" stroke:none;fill-rule:nonzero;fill:rgb(100%,100%,100%);fill-opacity:1;" d="M 260 283 L 260 304 L 280 292.453125 L 280 271.453125 L 260 283 "/>
<path style=" stroke:none;fill-rule:nonzero;fill:rgb(0%,0%,0%);fill-opacity:1;" d="M 260 303 L 260 324 L 280 312.453125 L 280 291.453125 L 260 303 "/>
<path style=" stroke:none;fill-rule:nonzero;fill:rgb(100%,100%,100%);fill-opacity:1;" d="M 260 323 L 260 344 L 280 332.453125 L 280 311.453125 L 260 323 "/>
<path style=" stroke:none;fill-rule:nonzero;fill:rgb(0%,0%,0%);fill-opacity:1;" d="M 260 343 L 260 364 L 280 352.453125 L 280 331.453125 L 260 343 "/>
<path style=" stroke:none;fill-rule:nonzero;fill:rgb(100%,100%,100%);fill-opacity:1;" d="M 260 363 L 260 384 L 280 372.453125 L 280 351.453125 L 260 363 "/>
<path style=" stroke:none;fill-rule:nonzero;fill:rgb(0%,0%,0%);fill-opacity:1;" d="M 260 383 L 260 404 L 280 392.453125 L 280 371.453125 L 260 383 "/>
<path style=" stroke:none;fill-rule:nonzero;fill:rgb(100%,100%,100%);fill-opacity:1;" d="M 260 403 L 260 424 L 280 412.453125 L 280 391.453125 L 260 403 "/>
<path style=" stroke:none;fill-rule:nonzero;fill:rgb(0%,0%,0%);fill-opacity:1;" d="M 280 -8 L 280 13 L 300 1.453125 L 300 -19.546875 L 280 -8 "/>
<path style=" stroke:none;fill-rule:nonzero;fill:rgb(100%,100%,100%);fill-opacity:1;" d="M 280 12 L 280 33 L 300 21.453125 L 300 0.453125 L 280 12 "/>
<path style=" stroke:none;fill-rule:nonzero;fill:rgb(0%,0%,0%);fill-opacity:1;" d="M 280 32 L 280 53 L 300 41.453125 L 300 20.453125 L 280 32 "/>
<path style=" stroke:none;fill-rule:nonzero;fill:rgb(100%,100%,100%);fill-opacity:1;" d="M 280 52 L 280 73 L 300 61.453125 L 300 40.453125 L 280 52 "/>
<path style=" stroke:none;fill-rule:nonzero;fill:rgb(0%,0%,0%);fill-opacity:1;" d="M 280 72 L 280 93 L 300 81.453125 L 300 60.453125 L 280 72 "/>
<path style=" stroke:none;fill-rule:nonzero;fill:rgb(100%,100%,100%);fill-opacity:1;" d="M 280 92 L 280 113 L 300 101.453125 L 300 80.453125 L 280 92 "/>
<path style=" stroke:none;fill-rule:nonzero;fill:rgb(0%,0%,0%);fill-opacity:1;" d="M 280 112 L 280 133 L 300 121.453125 L 300 100.453125 L 280 112 "/>
<path style=" stroke:none;fill-rule:nonzero;fill:rgb(100%,100%,100%);fill-opacity:1;" d="M 280 132 L 280 153 L 300 141.453125 L 300 120.453125 L 280 132 "/>
<path style=" stroke:none;fill-rule:nonzero;fill:rgb(0%,0%,0%);fill-opacity:1;" d="M 280 152 L 280 173 L 300 161.453125 L 300 140.453125 L 280 152 "/>
<path style=" stroke:none;fill-rule:nonzero;fill:rgb(100%,100%,100%);fill-opacity:1;" d="M 280 172 L 280 193 L 300 181.453125 L 300 160.453125 L 280 172 "/>
<path style=" stroke:none;fill-rule:nonzero;fill:rgb(0%,0%,0%);fill-opacity:1;" d="M 280 192 L 280 213 L 300 201.453125 L 300 180.453125 L 280 192 "/>
<path style=" stroke:none;fill-rule:nonzero;fill:rgb(100%,100%,100%);fill-opacity:1;" d="M 280 212 L 280 233 L 300 221.453125 L 300 200.453125 L 280 212 "/>
<path style=" stroke:none;fill-rule:nonzero;fill:rgb(0%,0%,0%);fill-opacity:1;" d="M 280 232 L 280 253 L 300 241.453125 L 300 220.453125 L 280 232 "/>
<path style=" stroke:none;fill-rule:nonzero;fill:rgb(100%,100%,100%);fill-opacity:1;" d="M 280 252 L 280 273 L 300 261.453125 L 300 240.453125 L 280 252 "/>
<path style=" stroke:none;fill-rule:nonzero;fill:rgb(0%,0%,0%);fill-opacity:1;" d="M 280 272 L 280 293 L 300 281.453125 L 300 260.453125 L 280 272 "/>
<path style=" stroke:none;fill-rule:nonzero;fill:rgb(100%,100%,100%);fill-opacity:1;" d="M 280 292 L 280 313 L 300 301.453125 L 300 280.453125 L 280 292 "/>
<path style=" stroke:none;fill-rule:nonzero;fill:rgb(0%,0%,0%);fill-opacity:1;" d="M 280 312 L 280 333 L 300 321.453125 L 300 300.453125 L 280 312 "/>
<path style=" stroke:none;fill-rule:nonzero;fill:rgb(100%,100%,100%);fill-opacity:1;" d="M 280 332 L 280 353 L 300 341.453125 L 300 320.453125 L 280 332 "/>
<path style=" stroke:none;fill-rule:nonzero;fill:rgb(0%,0%,0%);fill-opacity:1;" d="M 280 352 L 280 373 L 300 361.453125 L 300 340.453125 L 280 352 "/>
<path style=" stroke:none;fill-rule:nonzero;fill:rgb(100%,100%,100%);fill-opacity:1;" d="M 280 372 L 280 393 L 300 381.453125 L 300 360.453125 L 280 372 "/>
<path style=" stroke:none;fill-rule:nonzero;fill:rgb(0%,0%,0%);fill-opacity:1;" d="M 280 392 L 280 413 L 300 401.453125 L 300 380.453125 L 280 392 "/>
<path style=" stroke:none;fill-rule:nonzero;fill:rgb(100%,100%,100%);fill-opacity:1;" d="M 300 -20 L 300 1 L 320 -10.546875 L 320 -31.546875 L 300 -20 "/>
<path style=" stroke:none;fill-rule:nonzero;fill:rgb(0%,0%,0%);fill-opacity:1;" d="M 300 0 L 300 21 L 320 9.453125 L 320 -11.546875 L 300 0 "/>
<path style=" stroke:none;fill-rule:nonzero;fill:rgb(100%,100%,100%);fill-opacity:1;" d="M 300 20 L 300 41 L 320 29.453125 L 320 8.453125 L 300 20 "/>
<path style=" stroke:none;fill-rule:nonzero;fill:rgb(0%,0%,0%);fill-opacity:1;" d="M 300 40 L 300 61 L 320 49.453125 L 320 28.453125 L 300 40 "/>
<path style=" stroke:none;fill-rule:nonzero;fill:rgb(100%,100%,100%);fill-opacity:1;" d="M 300 60 L 300 81 L 320 69.453125 L 320 48.453125 L 300 60 "/>
<path style=" stroke:none;fill-rule:nonzero;fill:rgb(0%,0%,0%);fill-opacity:1;" d="M 300 80 L 300 101 L 320 89.453125 L 320 68.453125 L 300 80 "/>
<path style=" stroke:none;fill-rule:nonzero;fill:rgb(100%,100%,100%);fill-opacity:1;" d="M 300 100 L 300 121 L 320 109.453125 L 320 88.453125 L 300 100 "/>
<path style=" stroke:none;fill-rule:nonzero;fill:rgb(0%,0%,0%);fill-opacity:1;" d="M 300 120 L 300 141 L 320 129.453125 L 320 108.453125 L 300 120 "/>
<path style=" stroke:none;fill-rule:nonzero;fill:rgb(100%,100%,100%);fill-opacity:1;" d="M 300 140 L 300 161 L 320 149.453125 L 320 128.453125 L 300 140 "/>
<path style=" stroke:none;fill-rule:nonzero;fill:rgb(0%,0%,0%);fill-opacity:1;" d="M 300 160 L 300 181 L 320 169.453125 L 320 148.453125 L 300 160 "/>
<path style=" stroke:none;fill-rule:nonzero;fill:rgb(100%,100%,100%);fill-opacity:1;" d="M 300 180 L 300 201 L 320 189.453125 L 320 168.453125 L 300 180 "/>
<path style=" stroke:none;fill-rule:nonzero;fill:rgb(0%,0%,0%);fill-opacity:1;" d="M 300 200 L 300 221 L 320 209.453125 L 320 188.453125 L 300 200 "/>
<path style=" stroke:none;fill-rule:nonzero;fill:rgb(100%,100%,100%);fill-opacity:1;" d="M 300 220 L 300 241 L 320 229.453125 L 320 208.453125 L 300 220 "/>
<path style=" stroke:none;fill-rule:nonzero;fill:rgb(0%,0%,0%);fill-opacity:1;" d="M 300 240 L 300 261 L 320 249.453125 L 320 228.453125 L 300 240 "/>
<path style=" stroke:none;fill-rule:nonzero;fill:rgb(100%,100%,100%);fill-opacity:1;" d="M 300 260 L 300 281 L 320 269.453125 L 320 248.453125 L 300 260 "/>
<path style=" stroke:none;fill-rule:nonzero;fill:rgb(0%,0%,0%);fill-opacity:1;" d="M 300 280 L 300 301 L 320 289.453125 L 320 268.453125 L 300 280 "/>
<path style=" stroke:none;fill-rule:nonzero;fill:rgb(100%,100%,100%);fill-opacity:1;" d="M 300 300 L 300 321 L 320 309.453125 L 320 288.453125 L 300 300 "/>
<path style=" stroke:none;fill-rule:nonzero;fill:rgb(0%,0%,0%);fill-opacity:1;" d="M 300 320 L 300 341 L 320 329.453125 L 320 308.453125 L 300 320 "/>
<path style=" stroke:none;fill-rule:nonzero;fill:rgb(100%,100%,100%);fill-opacity:1;" d="M 300 340 L 300 361 L 320 349.453125 L 320 328.453125 L 300 340 "/>
<path style=" stroke:none;fill-rule:nonzero;fill:rgb(0%,0%,0%);fill-opacity:1;" d="M 300 360 L 300 381 L 320 369.453125 L 320 348.453125 L 300 360 "/>
<path style=" stroke:none;fill-rule:nonzero;fill:rgb(100%,100%,100%);fill-opacity:1;" d="M 300 380 L 300 401 L 320 389.453125 L 320 368.453125 L 300 380 "/>
<path style=" stroke:none;fill-rule:nonzero;fill:rgb(0%,0%,0%);fill-opacity:1;" d="M 300 400 L 300 421 L 320 409.453125 L 320 388.453125 L 300 400 "/>
<path style=" stroke:none;fill-rule:nonzero;fill:rgb(100%,100%,100%);fill-opacity:1;" d="M 320 -11 L 320 10 L 340 -1.546875 L 340 -22.546875 L 320 -11 "/>
<path style=" stroke:none;fill-rule:nonzero;fill:rgb(0%,0%,0%);fill-opacity:1;" d="M 320 9 L 320 30 L 340 18.453125 L 340 -2.546875 L 320 9 "/>
<path style=" stroke:none;fill-rule:nonzero;fill:rgb(100%,100%,100%);fill-opacity:1;" d="M 320 29 L 320 50 L 340 38.453125 L 340 17.453125 L 320 29 "/>
<path style=" stroke:none;fill-rule:nonzero;fill:rgb(0%,0%,0%);fill-opacity:1;" d="M 320 49 L 320 70 L 340 58.453125 L 340 37.453125 L 320 49 "/>
<path style=" stroke:none;fill-rule:nonzero;fill:rgb(100%,100%,100%);fill-opacity:1;" d="M 320 69 L 320 90 L 340 78.453125 L 340 57.453125 L 320 69 "/>
<path style=" stroke:none;fill-rule:nonzero;fill:rgb(0%,0%,0%);fill-opacity:1;" d="M 320 89 L 320 110 L 340 98.453125 L 340 77.453125 L 320 89 "/>
<path style=" stroke:none;fill-rule:nonzero;fill:rgb(100%,100%,100%);fill-opacity:1;" d="M 320 109 L 320 130 L 340 118.453125 L 340 97.453125 L 320 109 "/>
<path style=" stroke:none;fill-rule:nonzero;fill:rgb(0%,0%,0%);fill-opacity:1;" d="M 320 129 L 320 150 L 340 138.453125 L 340 117.453125 L 320 129 "/>
<path style=" stroke:none;fill-rule:nonzero;fill:rgb(100%,100%,100%);fill-opacity:1;" d="M 320 149 L 320 170 L 340 158.453125 L 340 137.453125 L 320 149 "/>
<path style=" stroke:none;fill-rule:nonzero;fill:rgb(0%,0%,0%);fill-opacity:1;" d="M 320 169 L 320 190 L 340 178.453125 L 340 157.453125 L 320 169 "/>
<path style=" stroke:none;fill-rule:nonzero;fill:rgb(100%,100%,100%);fill-opacity:1;" d="M 320 189 L 320 210 L 340 198.453125 L 340 177.453125 L 320 189 "/>
<path style=" stroke:none;fill-rule:nonzero;fill:rgb(0%,0%,0%);fill-opacity:1;" d="M 320 209 L 320 230 L 340 218.453125 L 340 197.453125 L 320 209 "/>
<path style=" stroke:none;fill-rule:nonzero;fill:rgb(100%,100%,100%);fill-opacity:1;" d="M 320 229 L 320 250 L 340 238.453125 L 340 217.453125 L 320 229 "/>
<path style=" stroke:none;fill-rule:nonzero;fill:rgb(0%,0%,0%);fill-opacity:1;" d="M 320 249 L 320 270 L 340 258.453125 L 340 237.453125 L 320 249 "/>
<path style=" stroke:none;fill-rule:nonzero;fill:rgb(100%,100%,100%);fill-opacity:1;" d="M 320 269 L 320 290 L 340 278.453125 L 340 257.453125 L 320 269 "/>
<path style=" stroke:none;fill-rule:nonzero;fill:rgb(0%,0%,0%);fill-opacity:1;" d="M 320 289 L 320 310 L 340 298.453125 L 340 277.453125 L 320 289 "/>
<path style=" stroke:none;fill-rule:nonzero;fill:rgb(100%,100%,100%);fill-opacity:1;" d="M 320 309 L 320 330 L 340 318.453125 L 340 297.453125 L 320 309 "/>
<path style=" stroke:none;fill-rule:nonzero;fill:rgb(0%,0%,0%);fill-opacity:1;" d="M 320 329 L 320 350 L 340 338.453125 L 340 317.453125 L 320 329 "/>
<path style=" stroke:none;fill-rule:nonzero;fill:rgb(100%,100%,100%);fill-opacity:1;" d="M 320 349 L 320 370 L 340 358.453125 L 340 337.453125 L 320 349 "/>
<path style=" stroke:none;fill-rule:nonzero;fill:rgb(0%,0%,0%);fill-opacity:1;" d="M 320 369 L 320 390 L 340 378.453125 L 340 357.453125 L 320 369 "/>
<path style=" stroke:none;fill-rule:nonzero;fill:rgb(100%,100%,100%);fill-opacity:1;" d="M 320 389 L 320 410 L 340 398.453125 L 340 377.453125 L 320 389 "/>
<path style=" stroke:none;fill-rule:nonzero;fill:rgb(0%,0%,0%);fill-opacity:1;" d="M 320 409 L 320 430 L 340 418.453125 L 340 397.453125 L 320 409 "/>
<path style=" stroke:none;fill-rule:nonzero;fill:rgb(100%,100%,100%);fill-opacity:1;" d="M 340 -3 L 340 18 L 360 6.453125 L 360 -14.546875 L 340 -3 "/>
<path style=" stroke:none;fill-rule:nonzero;fill:rgb(0%,0%,0%);fill-opacity:1;" d="M 340 17 L 340 38 L 360 26.453125 L 360 5.453125 L 340 17 "/>
<path style=" stroke:none;fill-rule:nonzero;fill:rgb(100%,100%,100%);fill-opacity:1;" d="M 340 37 L 340 58 L 360 46.453125 L 360 25.453125 L 340 37 "/>
<path style=" stroke:none;fill-rule:nonzero;fill:rgb(0%,0%,0%);fill-opacity:1;" d="M 340 57 L 340 78 L 360 66.453125 L 360 45.453125 L 340 57 "/>
<path style=" stroke:none;fill-rule:nonzero;fill:rgb(100%,100%,100%);fill-opacity:1;" d="M 340 77 L 340 98 L 360 86.453125 L 360 65.453125 L 340 77 "/>
<path style=" stroke:none;fill-rule:nonzero;fill:rgb(0%,0%,0%);fill-opacity:1;" d="M 340 97 L 340 118 L 360 106.453125 L 360 85.453125 L 340 97 "/>
<path style=" stroke:none;fill-rule:nonzero;fill:rgb(100%,100%,100%);fill-opacity:1;" d="M 340 117 L 340 138 L 360 126.453125 L 360 105.453125 L 340 117 "/>
<path style=" stroke:none;fill-rule:nonzero;fill:rgb(0%,0%,0%);fill-opacity:1;" d="M 340 137 L 340 158 L 360 146.453125 L 360 125.453125 L 340 137 "/>
<path style=" stroke:none;fill-rule:nonzero;fill:rgb(100%,100%,100%);fill-opacity:1;" d="M 340 157 L 340 178 L 360 166.453125 L 360 145.453125 L 340 157 "/>
<path style=" stroke:none;fill-rule:nonzero;fill:rgb(0%,0%,0%);fill-opacity:1;" d="M 340 177 L 340 198 L 360 186.453125 L 360 165.453125 L 340 177 "/>
<path style=" stroke:none;fill-rule:nonzero;fill:rgb(100%,100%,100%);fill-opacity:1;" d="M 340 197 L 340 218 L 360 206.453125 L 360 185.453125 L 340 197 "/>
<path style=" stroke:none;fill-rule:nonzero;fill:rgb(0%,0%,0%);fill-opacity:1;" d="M 340 217 L 340 238 L 360 226.453125 L 360 205.453125 L 340 217 "/>
<path style=" stroke:none;fill-rule:nonzero;fill:rgb(100%,100%,100%);fill-opacity:1;" d="M 340 237 L 340 258 L 360 246.453125 L 360 225.453125 L 340 237 "/>
<path style=" stroke:none;fill-rule:nonzero;fill:rgb(0%,0%,0%);fill-opacity:1;" d="M 340 257 L 340 278 L 360 266.453125 L 360 245.453125 L 340 257 "/>
<path style=" stroke:none;fill-rule:nonzero;fill:rgb(100%,100%,100%);fill-opacity:1;" d="M 340 277 L 340 298 L 360 286.453125 L 360 265.453125 L 340 277 "/>
<path style=" stroke:none;fill-rule:nonzero;fill:rgb(0%,0%,0%);fill-opacity:1;" d="M 340 297 L 340 318 L 360 306.453125 L 360 285.453125 L 340 297 "/>
<path style=" stroke:none;fill-rule:nonzero;fill:rgb(100%,100%,100%);fill-opacity:1;" d="M 340 317 L 340 338 L 360 326.453125 L 360 305.453125 L 340 317 "/>
<path style=" stroke:none;fill-rule:nonzero;fill:rgb(0%,0%,0%);fill-opacity:1;" d="M 340 337 L 340 358 L 360 346.453125 L 360 325.453125 L 340 337 "/>
<path style=" stroke:none;fill-rule:nonzero;fill:rgb(100%,100%,100%);fill-opacity:1;" d="M 340 357 L 340 378 L 360 366.453125 L 360 345.453125 L 340 357 "/>
<path style=" stroke:none;fill-rule:nonzero;fill:rgb(0%,0%,0%);fill-opacity:1;" d="M 340 377 L 340 398 L 360 386.453125 L 360 365.453125 L 340 377 "/>
<path style=" stroke:none;fill-rule:nonzero;fill:rgb(100%,100%,100%);fill-opacity:1;" d="M 340 397 L 340 418 L 360 406.453125 L 360 385.453125 L 340 397 "/>
<path style=" stroke:none;fill-rule:nonzero;fill:rgb(0%,0%,0%);fill-opacity:1;" d="M 360 -15 L 360 6 L 380 -5.546875 L 380 -26.546875 L 360 -15 "/>
<path style=" stroke:none;fill-rule:nonzero;fill:rgb(100%,100%,100%);fill-opacity:1;" d="M 360 5 L 360 26 L 380 14.453125 L 380 -6.546875 L 360 5 "/>
<path style=" stroke:none;fill-rule:nonzero;fill:rgb(0%,0%,0%);fill-opacity:1;" d="M 360 25 L 360 46 L 380 34.453125 L 380 13.453125 L 360 25 "/>
<path style=" stroke:none;fill-rule:nonzero;fill:rgb(100%,100%,100%);fill-opacity:1;" d="M 360 45 L 360 66 L 380 54.453125 L 380 33.453125 L 360 45 "/>
<path style=" stroke:none;fill-rule:nonzero;fill:rgb(0%,0%,0%);fill-opacity:1;" d="M 360 65 L 360 86 L 380 74.453125 L 380 53.453125 L 360 65 "/>
<path style=" stroke:none;fill-rule:nonzero;fill:rgb(100%,100%,100%);fill-opacity:1;" d="M 360 85 L 360 106 L 380 94.453125 L 380 73.453125 L 360 85 "/>
<path style=" stroke:none;fill-rule:nonzero;fill:rgb(0%,0%,0%);fill-opacity:1;" d="M 360 105 L 360 126 L 380 114.453125 L 380 93.453125 L 360 105 "/>
<path style=" stroke:none;fill-rule:nonzero;fill:rgb(100%,100%,100%);fill-opacity:1;" d="M 360 125 L 360 146 L 380 134.453125 L 380 113.453125 L 360 125 "/>
<path style=" stroke:none;fill-rule:nonzero;fill:rgb(0%,0%,0%);fill-opacity:1;" d="M 360 145 L 360 166 L 380 154.453125 L 380 133.453125 L 360 145 "/>
<path style=" stroke:none;fill-rule:nonzero;fill:rgb(100%,100%,100%);fill-opacity:1;" d="M 360 165 L 360 186 L 380 174.453125 L 380 153.453125 L 360 165 "/>
<path style=" stroke:none;fill-rule:nonzero;fill:rgb(0%,0%,0%);fill-opacity:1;" d="M 360 185 L 360 206 L 380 194.453125 L 380 173.453125 L 360 185 "/>
<path style=" stroke:none;fill-rule:nonzero;fill:rgb(100%,100%,100%);fill-opacity:1;" d="M 360 205 L 360 226 L 380 214.453125 L 380 193.453125 L 360 205 "/>
<path style=" stroke:none;fill-rule:nonzero;fill:rgb(0%,0%,0%);fill-opacity:1;" d="M 360 225 L 360 246 L 380 234.453125 L 380 213.453125 L 360 225 "/>
<path style=" stroke:none;fill-rule:nonzero;fill:rgb(100%,100%,100%);fill-opacity:1;" d="M 360 245 L 360 266 L 380 254.453125 L 380 233.453125 L 360 245 "/>
<path style=" stroke:none;fill-rule:nonzero;fill:rgb(0%,0%,0%);fill-opacity:1;" d="M 360 265 L 360 286 L 380 274.453125 L 380 253.453125 L 360 265 "/>
<path style=" stroke:none;fill-rule:nonzero;fill:rgb(100%,100%,100%);fill-opacity:1;" d="M 360 285 L 360 306 L 380 294.453125 L 380 273.453125 L 360 285 "/>
<path style=" stroke:none;fill-rule:nonzero;fill:rgb(0%,0%,0%);fill-opacity:1;" d="M 360 305 L 360 326 L 380 314.453125 L 380 293.453125 L 360 305 "/>
<path style=" stroke:none;fill-rule:nonzero;fill:rgb(100%,100%,100%);fill-opacity:1;" d="M 360 325 L 360 346 L 380 334.453125 L 380 313.453125 L 360 325 "/>
<path style=" stroke:none;fill-rule:nonzero;fill:rgb(0%,0%,0%);fill-opacity:1;" d="M 360 345 L 360 366 L 380 354.453125 L 380 333.453125 L 360 345 "/>
<path style=" stroke:none;fill-rule:nonzero;fill:rgb(100%,100%,100%);fill-opacity:1;" d="M 360 365 L 360 386 L 380 374.453125 L 380 353.453125 L 360 365 "/>
<path style=" stroke:none;fill-rule:nonzero;fill:rgb(0%,0%,0%);fill-opacity:1;" d="M 360 385 L 360 406 L 380 394.453125 L 380 373.453125 L 360 385 "/>
<path style=" stroke:none;fill-rule:nonzero;fill:rgb(100%,100%,100%);fill-opacity:1;" d="M 360 405 L 360 426 L 380 414.453125 L 380 393.453125 L 360 405 "/>
<path style=" stroke:none;fill-rule:nonzero;fill:rgb(0%,0%,0%);fill-opacity:1;" d="M 380 -6 L 380 15 L 400 3.453125 L 400 -17.546875 L 380 -6 "/>
<path style=" stroke:none;fill-rule:nonzero;fill:rgb(100%,100%,100%);fill-opacity:1;" d="M 380 14 L 380 35 L 400 23.453125 L 400 2.453125 L 380 14 "/>
<path style=" stroke:none;fill-rule:nonzero;fill:rgb(0%,0%,0%);fill-opacity:1;" d="M 380 34 L 380 55 L 400 43.453125 L 400 22.453125 L 380 34 "/>
<path style=" stroke:none;fill-rule:nonzero;fill:rgb(100%,100%,100%);fill-opacity:1;" d="M 380 54 L 380 75 L 400 63.453125 L 400 42.453125 L 380 54 "/>
<path style=" stroke:none;fill-rule:nonzero;fill:rgb(0%,0%,0%);fill-opacity:1;" d="M 380 74 L 380 95 L 400 83.453125 L 400 62.453125 L 380 74 "/>
<path style=" stroke:none;fill-rule:nonzero;fill:rgb(100%,100%,100%);fill-opacity:1;" d="M 380 94 L 380 115 L 400 103.453125 L 400 82.453125 L 380 94 "/>
<path style=" stroke:none;fill-rule:nonzero;fill:rgb(0%,0%,0%);fill-opacity:1;" d="M 380 114 L 380 135 L 400 123.453125 L 400 102.453125 L 380 114 "/>
<path style=" stroke:none;fill-rule:nonzero;fill:rgb(100%,100%,100%);fill-opacity:1;" d="M 380 134 L 380 155 L 400 143.453125 L 400 122.453125 L 380 134 "/>
<path style=" stroke:none;fill-rule:nonzero;fill:rgb(0%,0%,0%);fill-opacity:1;" d="M 380 154 L 380 175 L 400 163.453125 L 400 142.453125 L 380 154 "/>
<path style=" stroke:none;fill-rule:nonzero;fill:rgb(100%,100%,100%);fill-opacity:1;" d="M 380 174 L 380 195 L 400 183.453125 L 400 162.453125 L 380 174 "/>
<path style=" stroke:none;fill-rule:nonzero;fill:rgb(0%,0%,0%);fill-opacity:1;" d="M 380 194 L 380 215 L 400 203.453125 L 400 182.453125 L 380 194 "/>
<path style=" stroke:none;fill-rule:nonzero;fill:rgb(100%,100%,100%);fill-opacity:1;" d="M 380 214 L 380 235 L 400 223.453125 L 400 202.453125 L 380 214 "/>
<path style=" stroke:none;fill-rule:nonzero;fill:rgb(0%,0%,0%);fill-opacity:1;" d="M 380 234 L 380 255 L 400 243.453125 L 400 222.453125 L 380 234 "/>
<path style=" stroke:none;fill-rule:nonzero;fill:rgb(100%,100%,100%);fill-opacity:1;" d="M 380 254 L 380 275 L 400 263.453125 L 400 242.453125 L 380 254 "/>
<path style=" stroke:none;fill-rule:nonzero;fill:rgb(0%,0%,0%);fill-opacity:1;" d="M 380 274 L 380 295 L 400 283.453125 L 400 262.453125 L 380 274 "/>
<path style=" stroke:none;fill-rule:nonzero;fill:rgb(100%,100%,100%);fill-opacity:1;" d="M 380 294 L 380 315 L 400 303.453125 L 400 282.453125 L 380 294 "/>
<path style=" stroke:none;fill-rule:nonzero;fill:rgb(0%,0%,0%);fill-opacity:1;" d="M 380 314 L 380 335 L 400 323.453125 L 400 302.453125 L 380 314 "/>
<path style=" stroke:none;fill-rule:nonzero;fill:rgb(100%,100%,100%);fill-opacity:1;" d="M 380 334 L 380 355 L 400 343.453125 L 400 322.453125 L 380 334 "/>
<path style=" stroke:none;fill-rule:nonzero;fill:rgb(0%,0%,0%);fill-opacity:1;" d="M 380 354 L 380 375 L 400 363.453125 L 400 342.453125 L 380 354 "/>
<path style=" stroke:none;fill-rule:nonzero;fill:rgb(100%,100%,100%);fill-opacity:1;" d="M 380 374 L 380 395 L 400 383.453125 L 400 362.453125 L 380 374 "/>
<path style=" stroke:none;fill-rule:nonzero;fill:rgb(0%,0%,0%);fill-opacity:1;" d="M 380 394 L 380 415 L 400 403.453125 L 400 382.453125 L 380 394 "/>
</g>
</svg>
